<?xml version="1.0" encoding="UTF-8" standalone="no"?>
<!-- Created with Inkscape (http://www.inkscape.org/) -->

<svg
   version="1.1"
   id="svg1"
   width="1587.4"
   height="1122.52"
   viewBox="0 0 1587.4 1122.52"
   sodipodi:docname="chassis_découpe_V1.svg"
   inkscape:version="1.3 (0e150ed6c4, 2023-07-21)"
   xmlns:inkscape="http://www.inkscape.org/namespaces/inkscape"
   xmlns:sodipodi="http://sodipodi.sourceforge.net/DTD/sodipodi-0.dtd"
   xmlns="http://www.w3.org/2000/svg"
   xmlns:svg="http://www.w3.org/2000/svg">
  <defs
     id="defs1" />
  <sodipodi:namedview
     id="namedview1"
     pagecolor="#ffffff"
     bordercolor="#999999"
     borderopacity="1"
     inkscape:showpageshadow="2"
     inkscape:pageopacity="0"
     inkscape:pagecheckerboard="0"
     inkscape:deskcolor="#d1d1d1"
     inkscape:zoom="0.52724972"
     inkscape:cx="697.01317"
     inkscape:cy="672.35692"
     inkscape:window-width="1920"
     inkscape:window-height="1051"
     inkscape:window-x="-9"
     inkscape:window-y="-9"
     inkscape:window-maximized="1"
     inkscape:current-layer="layer1">
    <inkscape:page
       x="0"
       y="0"
       inkscape:label="1"
       id="page1"
       width="1587.4"
       height="1122.52"
       margin="0"
       bleed="0" />
  </sodipodi:namedview>
  <g
     id="g1"
     inkscape:groupmode="layer"
     inkscape:label="1"
     style="display:inline" />
  <g
     inkscape:groupmode="layer"
     id="layer1"
     inkscape:label="découpe"
     style="display:inline;stroke:#ff0000">
    <path
       id="path117"
       style="display:inline;fill:none;stroke:#ff0000;stroke-width:0.51;stroke-linecap:round;stroke-linejoin:round;stroke-miterlimit:10;stroke-dasharray:none;stroke-opacity:1"
       transform="matrix(1.3333333,0,0,-1.3333333,1312.9333,788.92)"
       d="M 15.6,306.3 V 45.5 m 0,0 0.3,-2.2 0.6,-2.2 1.1,-1.9 1.4,-1.7 1.7,-1.5 1.9,-1 2.2,-0.6 2.2,-0.3 m 0,0 h 19.8 m 0,0 2.2,0.3 2.2,0.6 1.9,1 1.7,1.5 1.4,1.7 1.1,1.9 0.6,2.2 0.3,2.2 m 0,0 v 260.8 m 0,0 -0.3,2.2 -0.6,2.1 -1.1,2 -1.4,1.7 -1.7,1.4 -1.9,1 -2.2,0.7 -2.2,0.2 m 0,0 H 27 m 0,0 -2.2,-0.2 -2.2,-0.7 -1.9,-1 -1.7,-1.4 -1.4,-1.7 -1.1,-2 -0.6,-2.1 -0.3,-2.2" />
    <path
       id="path109"
       style="display:inline;fill:none;stroke:#ff0000;stroke-width:0.51;stroke-linecap:round;stroke-linejoin:round;stroke-miterlimit:10;stroke-dasharray:none;stroke-opacity:1"
       transform="matrix(1.3333333,0,0,-1.3333333,1312.9333,788.92)"
       d="m -837.6,34.1 h 19.9 m 0,0 2.2,0.3 2.1,0.6 2,1 1.7,1.5 1.4,1.7 1,1.9 0.7,2.2 0.2,2.2 m 0,0 v 260.8 m 0,0 -0.2,2.2 -0.7,2.1 -1,2 -1.4,1.7 -1.7,1.4 -2,1 -2.1,0.7 -2.2,0.2 m 0,0 h -19.9 m 0,0 -2.2,-0.2 -2.1,-0.7 -2,-1 -1.7,-1.4 -1.4,-1.7 -1.1,-2 -0.6,-2.1 -0.2,-2.2 m 0,0 V 45.5 m 0,0 0.2,-2.2 0.6,-2.2 1.1,-1.9 1.4,-1.7 1.7,-1.5 2,-1 2.1,-0.6 2.2,-0.3" />
    <path
       style="display:inline;fill:none;stroke:#ff0000;stroke-width:0.51;stroke-linecap:round;stroke-linejoin:round;stroke-miterlimit:10;stroke-dasharray:none;stroke-opacity:1"
       d="m -211.1,97.8 2.2,0.4 1.9,1.3 1.2,1.9 0.5,2.2 -0.5,2.2 -1.2,1.9 -1.9,1.3 -2.2,0.4 -2.3,-0.4 -1.8,-1.3 -1.3,-1.9 -0.4,-2.2 0.4,-2.2 1.3,-1.9 1.8,-1.3 2.3,-0.4"
       transform="matrix(1.3333333,0,0,-1.3333333,1312.9333,788.92)"
       id="path149" />
    <path
       style="display:inline;fill:none;stroke:#ff0000;stroke-width:0.51;stroke-linecap:round;stroke-linejoin:round;stroke-miterlimit:10;stroke-dasharray:none;stroke-opacity:1"
       d="m -579.6,97.8 2.2,0.4 1.9,1.3 1.2,1.9 0.5,2.2 -0.5,2.2 -1.2,1.9 -1.9,1.3 -2.2,0.4 -2.3,-0.4 -1.8,-1.3 -1.3,-1.9 -0.4,-2.2 0.4,-2.2 1.3,-1.9 1.8,-1.3 2.3,-0.4"
       transform="matrix(1.3333333,0,0,-1.3333333,1312.9333,788.92)"
       id="path148" />
    <path
       style="display:inline;fill:none;stroke:#ff0000;stroke-width:0.51;stroke-linecap:round;stroke-linejoin:round;stroke-miterlimit:10;stroke-dasharray:none;stroke-opacity:1"
       d="m -532.3,97.8 2.2,0.4 1.9,1.3 1.3,1.9 0.4,2.2 -0.4,2.2 -1.3,1.9 -1.9,1.3 -2.2,0.4 -2.2,-0.4 -1.9,-1.3 -1.3,-1.9 -0.4,-2.2 0.4,-2.2 1.3,-1.9 1.9,-1.3 2.2,-0.4"
       transform="matrix(1.3333333,0,0,-1.3333333,1312.9333,788.92)"
       id="path147" />
    <path
       style="display:inline;fill:none;stroke:#ff0000;stroke-width:0.51;stroke-linecap:round;stroke-linejoin:round;stroke-miterlimit:10;stroke-dasharray:none;stroke-opacity:1"
       d="m -532.3,242.3 2.2,0.5 1.9,1.2 1.3,1.9 0.4,2.2 -0.4,2.3 -1.3,1.9 -1.9,1.2 -2.2,0.5 -2.2,-0.5 -1.9,-1.2 -1.3,-1.9 -0.4,-2.3 0.4,-2.2 1.3,-1.9 1.9,-1.2 2.2,-0.5"
       transform="matrix(1.3333333,0,0,-1.3333333,1312.9333,788.92)"
       id="path146" />
    <path
       style="display:inline;fill:none;stroke:#ff0000;stroke-width:0.51;stroke-linecap:round;stroke-linejoin:round;stroke-miterlimit:10;stroke-dasharray:none;stroke-opacity:1"
       d="m -258.5,97.8 2.3,0.4 1.8,1.3 1.3,1.9 0.4,2.2 -0.4,2.2 -1.3,1.9 -1.8,1.3 -2.3,0.4 -2.2,-0.4 -1.9,-1.3 -1.2,-1.9 -0.5,-2.2 0.5,-2.2 1.2,-1.9 1.9,-1.3 2.2,-0.4"
       transform="matrix(1.3333333,0,0,-1.3333333,1312.9333,788.92)"
       id="path145" />
    <path
       style="display:inline;fill:none;stroke:#ff0000;stroke-width:0.51;stroke-linecap:round;stroke-linejoin:round;stroke-miterlimit:10;stroke-dasharray:none;stroke-opacity:1"
       d="m -258.5,242.3 2.3,0.5 1.8,1.2 1.3,1.9 0.4,2.2 -0.4,2.3 -1.3,1.9 -1.8,1.2 -2.3,0.5 -2.2,-0.5 -1.9,-1.2 -1.2,-1.9 -0.5,-2.3 0.5,-2.2 1.2,-1.9 1.9,-1.2 2.2,-0.5"
       transform="matrix(1.3333333,0,0,-1.3333333,1312.9333,788.92)"
       id="path144" />
    <path
       style="display:inline;fill:none;stroke:#ff0000;stroke-width:0.51;stroke-linecap:round;stroke-linejoin:round;stroke-miterlimit:10;stroke-dasharray:none;stroke-opacity:1"
       d="m -211.1,242.3 2.2,0.5 1.9,1.2 1.2,1.9 0.5,2.2 -0.5,2.3 -1.2,1.9 -1.9,1.2 -2.2,0.5 -2.3,-0.5 -1.8,-1.2 -1.3,-1.9 -0.4,-2.3 0.4,-2.2 1.3,-1.9 1.8,-1.2 2.3,-0.5"
       transform="matrix(1.3333333,0,0,-1.3333333,1312.9333,788.92)"
       id="path143" />
    <path
       style="display:inline;fill:none;stroke:#ff0000;stroke-width:0.51;stroke-linecap:round;stroke-linejoin:round;stroke-miterlimit:10;stroke-dasharray:none;stroke-opacity:1"
       d="m -579.6,242.3 2.2,0.5 1.9,1.2 1.2,1.9 0.5,2.2 -0.5,2.3 -1.2,1.9 -1.9,1.2 -2.2,0.5 -2.3,-0.5 -1.8,-1.2 -1.3,-1.9 -0.4,-2.3 0.4,-2.2 1.3,-1.9 1.8,-1.2 2.3,-0.5"
       transform="matrix(1.3333333,0,0,-1.3333333,1312.9333,788.92)"
       id="path142" />
    <path
       style="display:inline;fill:none;stroke:#ff0000;stroke-width:0.51;stroke-linecap:round;stroke-linejoin:round;stroke-miterlimit:10;stroke-dasharray:none;stroke-opacity:1"
       d="m -109.1,76.7 2.2,0.2 2.2,0.6 1.9,1.1 1.7,1.4 1.4,1.7 1.1,2 0.6,2.1 0.3,2.2"
       transform="matrix(1.3333333,0,0,-1.3333333,1312.9333,788.92)"
       id="path132" />
    <path
       style="display:inline;fill:none;stroke:#ff0000;stroke-width:0.51;stroke-linecap:round;stroke-linejoin:round;stroke-miterlimit:10;stroke-dasharray:none;stroke-opacity:1"
       d="m -185.6,76.7 h 76.5"
       transform="matrix(1.3333333,0,0,-1.3333333,1312.9333,788.92)"
       id="path131" />
    <path
       style="display:inline;fill:none;stroke:#ff0000;stroke-width:0.51;stroke-linecap:round;stroke-linejoin:round;stroke-miterlimit:10;stroke-dasharray:none;stroke-opacity:1"
       d="m -197,88 0.3,-2.2 0.6,-2.1 1.1,-2 1.4,-1.7 1.7,-1.4 1.9,-1.1 2.2,-0.6 2.2,-0.2"
       transform="matrix(1.3333333,0,0,-1.3333333,1312.9333,788.92)"
       id="path130" />
    <path
       style="display:inline;fill:none;stroke:#ff0000;stroke-width:0.51;stroke-linecap:round;stroke-linejoin:round;stroke-miterlimit:10;stroke-dasharray:none;stroke-opacity:1"
       d="M -197,263.7 V 88"
       transform="matrix(1.3333333,0,0,-1.3333333,1312.9333,788.92)"
       id="path129" />
    <path
       style="display:inline;fill:none;stroke:#ff0000;stroke-width:0.51;stroke-linecap:round;stroke-linejoin:round;stroke-miterlimit:10;stroke-dasharray:none;stroke-opacity:1"
       d="m -185.6,275.1 -2.2,-0.2 -2.2,-0.7 -1.9,-1 -1.7,-1.4 -1.4,-1.8 -1.1,-1.9 -0.6,-2.1 -0.3,-2.3"
       transform="matrix(1.3333333,0,0,-1.3333333,1312.9333,788.92)"
       id="path128" />
    <path
       style="display:inline;fill:none;stroke:#ff0000;stroke-width:0.51;stroke-linecap:round;stroke-linejoin:round;stroke-miterlimit:10;stroke-dasharray:none;stroke-opacity:1"
       d="m -109.1,275.1 h -76.5"
       transform="matrix(1.3333333,0,0,-1.3333333,1312.9333,788.92)"
       id="path127" />
    <path
       style="display:inline;fill:none;stroke:#ff0000;stroke-width:0.51;stroke-linecap:round;stroke-linejoin:round;stroke-miterlimit:10;stroke-dasharray:none;stroke-opacity:1"
       d="m -97.7,263.7 -0.3,2.3 -0.6,2.1 -1.1,1.9 -1.4,1.8 -1.7,1.4 -1.9,1 -2.2,0.7 -2.2,0.2"
       transform="matrix(1.3333333,0,0,-1.3333333,1312.9333,788.92)"
       id="path126" />
    <path
       style="display:inline;fill:none;stroke:#ff0000;stroke-width:0.51;stroke-linecap:round;stroke-linejoin:round;stroke-miterlimit:10;stroke-dasharray:none;stroke-opacity:1"
       d="M -97.7,88 V 263.7"
       transform="matrix(1.3333333,0,0,-1.3333333,1312.9333,788.92)"
       id="path125" />
    <path
       style="display:inline;fill:none;stroke:#ff0000;stroke-width:0.51;stroke-linecap:round;stroke-linejoin:round;stroke-miterlimit:10;stroke-dasharray:none;stroke-opacity:1"
       d="M -693,263.7 V 88"
       transform="matrix(1.3333333,0,0,-1.3333333,1312.9333,788.92)"
       id="path108" />
    <path
       style="display:inline;fill:none;stroke:#ff0000;stroke-width:0.51;stroke-linecap:round;stroke-linejoin:round;stroke-miterlimit:10;stroke-dasharray:none;stroke-opacity:1"
       d="m -681.7,275.1 -2.2,-0.2 -2.1,-0.7 -2,-1 -1.7,-1.4 -1.4,-1.8 -1.1,-1.9 -0.6,-2.1 -0.2,-2.3"
       transform="matrix(1.3333333,0,0,-1.3333333,1312.9333,788.92)"
       id="path107" />
    <path
       style="display:inline;fill:none;stroke:#ff0000;stroke-width:0.51;stroke-linecap:round;stroke-linejoin:round;stroke-miterlimit:10;stroke-dasharray:none;stroke-opacity:1"
       d="m -605.1,275.1 h -76.6"
       transform="matrix(1.3333333,0,0,-1.3333333,1312.9333,788.92)"
       id="path106" />
    <path
       style="display:inline;fill:none;stroke:#ff0000;stroke-width:0.51;stroke-linecap:round;stroke-linejoin:round;stroke-miterlimit:10;stroke-dasharray:none;stroke-opacity:1"
       d="m -593.8,263.7 -0.2,2.3 -0.7,2.1 -1,1.9 -1.4,1.8 -1.7,1.4 -2,1 -2.1,0.7 -2.2,0.2"
       transform="matrix(1.3333333,0,0,-1.3333333,1312.9333,788.92)"
       id="path105" />
    <path
       style="display:inline;fill:none;stroke:#ff0000;stroke-width:0.51;stroke-linecap:round;stroke-linejoin:round;stroke-miterlimit:10;stroke-dasharray:none;stroke-opacity:1"
       d="M -593.8,88 V 263.7"
       transform="matrix(1.3333333,0,0,-1.3333333,1312.9333,788.92)"
       id="path104" />
    <path
       style="display:inline;fill:none;stroke:#ff0000;stroke-width:0.51;stroke-linecap:round;stroke-linejoin:round;stroke-miterlimit:10;stroke-dasharray:none;stroke-opacity:1"
       d="m -605.1,76.7 2.2,0.2 2.1,0.6 2,1.1 1.7,1.4 1.4,1.7 1,2 0.7,2.1 0.2,2.2"
       transform="matrix(1.3333333,0,0,-1.3333333,1312.9333,788.92)"
       id="path103" />
    <path
       style="display:inline;fill:none;stroke:#ff0000;stroke-width:0.51;stroke-linecap:round;stroke-linejoin:round;stroke-miterlimit:10;stroke-dasharray:none;stroke-opacity:1"
       d="m -681.7,76.7 h 76.6"
       transform="matrix(1.3333333,0,0,-1.3333333,1312.9333,788.92)"
       id="path102" />
    <path
       style="display:inline;fill:none;stroke:#ff0000;stroke-width:0.51;stroke-linecap:round;stroke-linejoin:round;stroke-miterlimit:10;stroke-dasharray:none;stroke-opacity:1"
       d="m -693,88 0.2,-2.2 0.6,-2.1 1.1,-2 1.4,-1.7 1.7,-1.4 2,-1.1 2.1,-0.6 2.2,-0.2"
       transform="matrix(1.3333333,0,0,-1.3333333,1312.9333,788.92)"
       id="path101" />
    <path
       style="display:inline;fill:none;stroke:#ff0000;stroke-width:0.51;stroke-linecap:round;stroke-linejoin:round;stroke-miterlimit:10;stroke-dasharray:none;stroke-opacity:1"
       d="M 86.5,501.8 44,544.4"
       transform="matrix(1.3333333,0,0,-1.3333333,1312.9333,788.92)"
       id="path97" />
    <path
       style="display:inline;fill:none;stroke:#ff0000;stroke-width:0.51;stroke-linecap:round;stroke-linejoin:round;stroke-miterlimit:10;stroke-dasharray:none;stroke-opacity:1"
       d="M 44,544.4 H -834.8"
       transform="matrix(1.3333333,0,0,-1.3333333,1312.9333,788.92)"
       id="path96" />
    <path
       style="display:inline;fill:none;stroke:#ff0000;stroke-width:0.51;stroke-linecap:round;stroke-linejoin:round;stroke-miterlimit:10;stroke-dasharray:none;stroke-opacity:1"
       d="m -834.8,544.4 -42.5,-42.6"
       transform="matrix(1.3333333,0,0,-1.3333333,1312.9333,788.92)"
       id="path95" />
    <path
       style="display:inline;fill:none;stroke:#ff0000;stroke-width:0.51;stroke-linecap:round;stroke-linejoin:round;stroke-miterlimit:10;stroke-dasharray:none;stroke-opacity:1"
       d="M 86.5,-150.1 V 501.8"
       transform="matrix(1.3333333,0,0,-1.3333333,1312.9333,788.92)"
       id="path98" />
    <path
       style="display:inline;fill:none;stroke:#ff0000;stroke-width:0.51;stroke-linecap:round;stroke-linejoin:round;stroke-miterlimit:10;stroke-dasharray:none;stroke-opacity:1"
       d="M -834.8,-192.6 H 44"
       transform="matrix(1.3333333,0,0,-1.3333333,1312.9333,788.92)"
       id="path100" />
    <path
       style="display:inline;fill:none;stroke:#ff0000;stroke-width:0.51;stroke-linecap:round;stroke-linejoin:round;stroke-miterlimit:10;stroke-dasharray:none;stroke-opacity:1"
       d="m 44,-192.6 42.5,42.5"
       transform="matrix(1.3333333,0,0,-1.3333333,1312.9333,788.92)"
       id="path99" />
    <path
       style="display:inline;fill:none;stroke:#ff0000;stroke-width:0.51;stroke-linecap:round;stroke-linejoin:round;stroke-miterlimit:10;stroke-dasharray:none;stroke-opacity:1"
       d="m -877.3,-150.1 42.5,-42.5"
       transform="matrix(1.3333333,0,0,-1.3333333,1312.9333,788.92)"
       id="path93" />
    <path
       style="display:inline;fill:none;stroke:#ff0000;stroke-width:0.51;stroke-linecap:round;stroke-linejoin:round;stroke-miterlimit:10;stroke-dasharray:none;stroke-opacity:1"
       d="M -877.3,501.8 V -150.1"
       transform="matrix(1.3333333,0,0,-1.3333333,1312.9333,788.92)"
       id="path94" />
    <path
       style="display:inline;fill:none;stroke:#ff0000;stroke-width:0.51;stroke-linecap:round;stroke-linejoin:round;stroke-miterlimit:10;stroke-dasharray:none;stroke-opacity:1"
       d="m -395.4,-101.8 -2.2,-0.4 -1.9,-1.3 -1.3,-1.9 -0.4,-2.2 0.4,-2.2 1.3,-1.9 1.9,-1.3 2.2,-0.4 2.2,0.4 1.9,1.3 1.3,1.9 0.4,2.2 -0.4,2.2 -1.3,1.9 -1.9,1.3 -2.2,0.4"
       transform="matrix(1.3333333,0,0,-1.3333333,1312.9333,788.92)"
       id="path151" />
    <path
       style="display:inline;fill:none;stroke:#ff0000;stroke-width:0.51;stroke-linecap:round;stroke-linejoin:round;stroke-miterlimit:10;stroke-dasharray:none;stroke-opacity:1"
       d="m -790.8,11.6 2.2,-0.4 1.9,-1.3 1.3,-1.9 0.4,-2.2 -0.4,-2.2 -1.3,-1.9 -1.9,-1.3 -2.2,-0.4 -2.2,0.4 -1.9,1.3 -1.3,1.9 -0.4,2.2 0.4,2.2 1.3,1.9 1.9,1.3 2.2,0.4"
       transform="matrix(1.3333333,0,0,-1.3333333,1312.9333,788.92)"
       id="path140" />
    <path
       style="display:inline;fill:none;stroke:#ff0000;stroke-width:0.51;stroke-linecap:round;stroke-linejoin:round;stroke-miterlimit:10;stroke-dasharray:none;stroke-opacity:1"
       d="m 1.5,-113.6 2.2,0.5 2,1.3 1.3,1.9 0.4,2.3 -0.4,2.3 -1.3,1.9 -2,1.3 -2.2,0.5 -2.3,-0.5 -1.9,-1.3 -1.3,-1.9 -0.5,-2.3 0.5,-2.3 1.3,-1.9 1.9,-1.3 2.3,-0.5"
       transform="matrix(1.3333333,0,0,-1.3333333,1312.9333,788.92)"
       id="path135" />
    <path
       style="display:inline;fill:none;stroke:#ff0000;stroke-width:0.51;stroke-linecap:round;stroke-linejoin:round;stroke-miterlimit:10;stroke-dasharray:none;stroke-opacity:1"
       d="m -792.2,-101.6 -2.3,-0.5 -1.9,-1.3 -1.3,-1.9 -0.5,-2.3 0.5,-2.3 1.3,-1.9 1.9,-1.3 2.3,-0.5 2.2,0.5 2,1.3 1.3,1.9 0.4,2.3 -0.4,2.3 -1.3,1.9 -2,1.3 -2.2,0.5"
       transform="matrix(1.3333333,0,0,-1.3333333,1312.9333,788.92)"
       id="path134" />
    <path
       style="display:inline;fill:none;stroke:#ff0000;stroke-width:0.51;stroke-linecap:round;stroke-linejoin:round;stroke-miterlimit:10;stroke-dasharray:none;stroke-opacity:1"
       d="M 0,0 2.3,0.4 4.2,1.7 5.4,3.6 5.9,5.8 5.4,8 4.2,9.9 2.3,11.2 0,11.6 -2.2,11.2 -4.1,9.9 -5.3,8 -5.8,5.8 -5.3,3.6 -4.1,1.7 -2.2,0.4 0,0"
       transform="matrix(1.3333333,0,0,-1.3333333,1312.9333,788.92)"
       id="path1" />
    <path
       style="display:inline;fill:none;stroke:#ff0000;stroke-width:0.51;stroke-linecap:round;stroke-linejoin:round;stroke-miterlimit:10;stroke-dasharray:none;stroke-opacity:1"
       d="m 0,351.8 2.3,-0.5 1.9,-1.2 1.2,-1.9 0.5,-2.3 -0.5,-2.2 -1.2,-1.9 -1.9,-1.2 -2.3,-0.5 -2.2,0.5 -1.9,1.2 -1.2,1.9 -0.5,2.2 0.5,2.3 1.2,1.9 1.9,1.2 2.2,0.5"
       transform="matrix(1.3333333,0,0,-1.3333333,1312.9333,788.92)"
       id="path141" />
    <path
       style="display:inline;fill:none;stroke:#ff0000;stroke-width:0.51;stroke-linecap:round;stroke-linejoin:round;stroke-miterlimit:10;stroke-dasharray:none;stroke-opacity:1"
       d="m -790.8,340.1 2.2,0.5 1.9,1.2 1.3,1.9 0.4,2.2 -0.4,2.3 -1.3,1.9 -1.9,1.2 -2.2,0.5 -2.2,-0.5 -1.9,-1.2 -1.3,-1.9 -0.4,-2.3 0.4,-2.2 1.3,-1.9 1.9,-1.2 2.2,-0.5"
       transform="matrix(1.3333333,0,0,-1.3333333,1312.9333,788.92)"
       id="path91" />
    <path
       style="display:inline;fill:none;stroke:#ff0000;stroke-width:0.51;stroke-linecap:round;stroke-linejoin:round;stroke-miterlimit:10;stroke-dasharray:86.4, 3.6, 3.6, 3.6;stroke-dashoffset:0;stroke-opacity:1"
       d="m 389.74728,5.919686 -2.3,-0.5 -1.9,-1.3 -1.3,-1.9 -0.5,-2.29999998 0.5,-2.20000002 1.3,-2 1.9,-1.3 2.3,-0.4 2.2,0.4 2,1.3 1.3,2 0.4,2.20000002 -0.4,2.29999998 -1.3,1.9 -2,1.3 -2.2,0.5"
       transform="matrix(1.3333333,0,0,-1.3333333,795.27027,176.41293)"
       id="path222" />
    <path
       style="display:inline;fill:none;stroke:#ff0000;stroke-width:0.51;stroke-linecap:round;stroke-linejoin:round;stroke-miterlimit:10;stroke-dasharray:86.4, 3.6, 3.6, 3.6;stroke-dashoffset:0;stroke-opacity:1"
       d="m -403.95272,-5.980314 2.2,0.4 2,1.3 1.3,2 0.4,2.20000002 -0.4,2.29999998 -1.3,1.9 -2,1.3 -2.2,0.5 -2.3,-0.5 -1.9,-1.3 -1.3,-1.9 -0.5,-2.29999998 0.5,-2.20000002 1.3,-2 1.9,-1.3 2.3,-0.4"
       transform="matrix(1.3333333,0,0,-1.3333333,795.27027,176.41293)"
       id="path221" />
    <path
       style="display:inline;fill:none;stroke:#ff0000;stroke-width:0.51;stroke-linecap:round;stroke-linejoin:round;stroke-miterlimit:10;stroke-dasharray:86.4, 3.6, 3.6, 3.6;stroke-dashoffset:0;stroke-opacity:1"
       d="m -7.1527182,-5.880314 2.2,0.5 1.9,1.2 1.3,1.9 0.4,2.20000002 -0.4,2.29999998 -1.3,1.8 -1.9,1.3 -2.2,0.4 -2.2,-0.4 -1.8999998,-1.3 -1.3,-1.8 -0.4,-2.29999998 0.4,-2.20000002 1.3,-1.9 1.8999998,-1.2 2.2,-0.5"
       transform="matrix(1.3333333,0,0,-1.3333333,795.27027,176.41293)"
       id="path86" />
  </g>
  <g
     inkscape:groupmode="layer"
     id="layer2"
     inkscape:label="gravure"
     style="display:inline">
    <path
       style="display:inline;fill:none;stroke:#000000;stroke-width:0.51;stroke-linecap:round;stroke-linejoin:round;stroke-miterlimit:10;stroke-dasharray:none;stroke-opacity:1"
       d="m 0,72.3 2.7,0.4 2.4,1.2 1.9,1.9 1.3,2.4 0.4,2.7 L 8.3,83.6 7,86 5.1,87.9 2.7,89.1 0,89.6 -2.6,89.1 -5,87.9 -6.9,86 -8.2,83.6 -8.6,80.9 -8.2,78.2 -6.9,75.8 -5,73.9 -2.6,72.7 0,72.3"
       transform="matrix(1.3333333,0,0,-1.3333333,1312.9333,788.92)"
       id="path137" />
    <path
       style="display:inline;fill:none;stroke:#000000;stroke-width:0.51;stroke-linecap:round;stroke-linejoin:round;stroke-miterlimit:10;stroke-dasharray:none;stroke-opacity:1"
       d="M 0,279.5 2.7,279 5.1,277.8 7,275.9 8.3,273.5 8.7,270.8 8.3,268.2 7,265.7 5.1,263.8 2.7,262.6 0,262.2 l -2.6,0.4 -2.4,1.2 -1.9,1.9 -1.3,2.5 -0.4,2.6 0.4,2.7 1.3,2.4 1.9,1.9 2.4,1.2 2.6,0.5"
       transform="matrix(1.3333333,0,0,-1.3333333,1312.9333,788.92)"
       id="path92" />
    <path
       style="display:inline;fill:none;stroke:#000000;stroke-width:0.51;stroke-linecap:round;stroke-linejoin:round;stroke-miterlimit:10;stroke-dasharray:none;stroke-opacity:1"
       d="m -790.8,89.6 2.7,-0.5 2.4,-1.2 1.9,-1.9 1.2,-2.4 0.4,-2.7 -0.4,-2.7 -1.2,-2.4 -1.9,-1.9 -2.4,-1.2 -2.7,-0.4 -2.7,0.4 -2.4,1.2 -1.9,1.9 -1.2,2.4 -0.5,2.7 0.5,2.7 1.2,2.4 1.9,1.9 2.4,1.2 2.7,0.5"
       transform="matrix(1.3333333,0,0,-1.3333333,1312.9333,788.92)"
       id="path139" />
    <path
       style="display:inline;fill:none;stroke:#000000;stroke-width:0.51;stroke-linecap:round;stroke-linejoin:round;stroke-miterlimit:10;stroke-dasharray:none;stroke-opacity:1"
       d="m -790.8,262.2 2.7,0.4 2.4,1.2 1.9,1.9 1.2,2.5 0.4,2.6 -0.4,2.7 -1.2,2.4 -1.9,1.9 -2.4,1.2 -2.7,0.5 -2.7,-0.5 -2.4,-1.2 -1.9,-1.9 -1.2,-2.4 -0.5,-2.7 0.5,-2.6 1.2,-2.5 1.9,-1.9 2.4,-1.2 2.7,-0.4"
       transform="matrix(1.3333333,0,0,-1.3333333,1312.9333,788.92)"
       id="path138" />
  </g>
</svg>
