<?xml version="1.0" encoding="UTF-8" standalone="no"?>
<!-- Created with Inkscape (http://www.inkscape.org/) -->

<svg
   width="354.7742mm"
   height="261.51614mm"
   viewBox="0 0 354.7742 261.51614"
   version="1.1"
   id="svg1"
   inkscape:version="1.3 (0e150ed6c4, 2023-07-21)"
   sodipodi:docname="chassis_clean.svg"
   xmlns:inkscape="http://www.inkscape.org/namespaces/inkscape"
   xmlns:sodipodi="http://sodipodi.sourceforge.net/DTD/sodipodi-0.dtd"
   xmlns="http://www.w3.org/2000/svg"
   xmlns:svg="http://www.w3.org/2000/svg">
  <sodipodi:namedview
     id="namedview1"
     pagecolor="#ffffff"
     bordercolor="#999999"
     borderopacity="1"
     inkscape:showpageshadow="2"
     inkscape:pageopacity="0"
     inkscape:pagecheckerboard="0"
     inkscape:deskcolor="#d1d1d1"
     inkscape:document-units="mm"
     inkscape:zoom="0.37282197"
     inkscape:cx="602.16408"
     inkscape:cy="450.61722"
     inkscape:window-width="1920"
     inkscape:window-height="1051"
     inkscape:window-x="-9"
     inkscape:window-y="-9"
     inkscape:window-maximized="1"
     inkscape:current-layer="layer1" />
  <defs
     id="defs1" />
  <g
     inkscape:label="Calque 1"
     inkscape:groupmode="layer"
     id="layer1">
    <path
       style="display:inline;fill:none;stroke:#000000;stroke-width:0.250119;stroke-linecap:round;stroke-linejoin:round;stroke-miterlimit:10;stroke-dasharray:none;stroke-opacity:1"
       d="m 296.91591,170.97715 v 83.99639"
       id="path33" />
    <path
       style="display:inline;fill:none;stroke:#000000;stroke-width:0.250119;stroke-linecap:round;stroke-linejoin:round;stroke-miterlimit:10;stroke-dasharray:none;stroke-opacity:1"
       d="m 297.93897,255.96131 h 28.99834"
       id="path31" />
    <path
       style="display:inline;fill:none;stroke:#000000;stroke-width:0.250119;stroke-linecap:round;stroke-linejoin:round;stroke-miterlimit:10;stroke-dasharray:none;stroke-opacity:1"
       d="m 326.93731,255.96131 20.0025,-19.96722"
       id="path30" />
    <path
       style="display:inline;fill:none;stroke:#000000;stroke-width:0.250119;stroke-linecap:round;stroke-linejoin:round;stroke-miterlimit:10;stroke-dasharray:none;stroke-opacity:1"
       d="M 346.93981,235.99409 V 20.976046"
       id="path29" />
    <path
       style="display:inline;fill:none;stroke:#000000;stroke-width:0.250119;stroke-linecap:round;stroke-linejoin:round;stroke-miterlimit:10;stroke-dasharray:none;stroke-opacity:1"
       d="M 346.93981,20.976046 301.92537,5.9829898"
       id="path28" />
    <path
       style="display:inline;fill:none;stroke:#000000;stroke-width:0.250119;stroke-linecap:round;stroke-linejoin:round;stroke-miterlimit:10;stroke-dasharray:none;stroke-opacity:1"
       d="M 301.92537,5.9829898 H 51.911752"
       id="path27" />
    <path
       style="display:inline;fill:none;stroke:#000000;stroke-width:0.250119;stroke-linecap:round;stroke-linejoin:round;stroke-miterlimit:10;stroke-dasharray:none;stroke-opacity:1"
       d="M 51.911752,5.9829898 6.9325865,20.976046"
       id="path26" />
    <path
       style="display:inline;fill:none;stroke:#000000;stroke-width:0.250119;stroke-linecap:round;stroke-linejoin:round;stroke-miterlimit:10;stroke-dasharray:none;stroke-opacity:1"
       d="M 6.9325865,20.976046 V 235.99409"
       id="path25" />
    <path
       style="display:inline;fill:none;stroke:#000000;stroke-width:0.250119;stroke-linecap:round;stroke-linejoin:round;stroke-miterlimit:10;stroke-dasharray:none;stroke-opacity:1"
       d="M 6.9325865,235.99409 26.935085,255.96131"
       id="path24" />
    <path
       style="display:inline;fill:none;stroke:#000000;stroke-width:0.250119;stroke-linecap:round;stroke-linejoin:round;stroke-miterlimit:10;stroke-dasharray:none;stroke-opacity:1"
       d="M 26.935085,255.96131 H 55.933416"
       id="path23" />
    <path
       style="display:inline;fill:none;stroke:#000000;stroke-width:0.250119;stroke-linecap:round;stroke-linejoin:round;stroke-miterlimit:10;stroke-dasharray:none;stroke-opacity:1"
       d="M 56.921195,254.97354 V 170.97715"
       id="path21" />
    <path
       style="display:inline;fill:none;stroke:#000000;stroke-width:0.250119;stroke-linecap:round;stroke-linejoin:round;stroke-miterlimit:10;stroke-dasharray:none;stroke-opacity:1"
       d="M 56.921195,170.97715 H 296.91591"
       id="path20" />
    <path
       style="fill:none;stroke:#000000;stroke-width:0.250119;stroke-linecap:round;stroke-linejoin:round;stroke-miterlimit:10;stroke-dasharray:none;stroke-opacity:1"
       d="M 227.41869,74.492431 H 206.42841"
       id="path92" />
    <path
       style="fill:none;stroke:#000000;stroke-width:0.250119;stroke-linecap:round;stroke-linejoin:round;stroke-miterlimit:10;stroke-dasharray:none;stroke-opacity:1"
       d="m 227.41869,77.491042 0.56444,-0.141111 0.4939,-0.3175 0.3175,-0.493889 0.1411,-0.564444 -0.1411,-0.564444 -0.3175,-0.493889 -0.4939,-0.3175 -0.56444,-0.105834"
       id="path91" />
    <path
       style="fill:none;stroke:#000000;stroke-width:0.250119;stroke-linecap:round;stroke-linejoin:round;stroke-miterlimit:10;stroke-dasharray:none;stroke-opacity:1"
       d="M 227.41869,77.491042 H 206.42841"
       id="path90" />
    <path
       style="fill:none;stroke:#000000;stroke-width:0.250119;stroke-linecap:round;stroke-linejoin:round;stroke-miterlimit:10;stroke-dasharray:none;stroke-opacity:1"
       d="m 206.42841,74.492431 -0.56445,0.105834 -0.49389,0.3175 -0.3175,0.493889 -0.14111,0.564444 0.14111,0.564444 0.3175,0.493889 0.49389,0.3175 0.56445,0.141111"
       id="path89" />
    <path
       style="fill:none;stroke:#000000;stroke-width:0.250119;stroke-linecap:round;stroke-linejoin:round;stroke-miterlimit:10;stroke-dasharray:none;stroke-opacity:1"
       d="m 206.42841,27.467155 -0.56445,-0.105833 -0.49389,-0.3175 -0.3175,-0.49389 -0.14111,-0.564443 0.14111,-0.564443 0.3175,-0.49389 0.49389,-0.3175 0.56445,-0.14111"
       id="path88" />
    <path
       style="fill:none;stroke:#000000;stroke-width:0.250119;stroke-linecap:round;stroke-linejoin:round;stroke-miterlimit:10;stroke-dasharray:none;stroke-opacity:1"
       d="M 227.41869,24.468546 H 206.42841"
       id="path87" />
    <path
       style="fill:none;stroke:#000000;stroke-width:0.250119;stroke-linecap:round;stroke-linejoin:round;stroke-miterlimit:10;stroke-dasharray:none;stroke-opacity:1"
       d="m 227.41869,24.468546 0.56444,0.14111 0.4939,0.3175 0.3175,0.49389 0.1411,0.564443 -0.1411,0.564443 -0.3175,0.49389 -0.4939,0.3175 -0.56444,0.105833"
       id="path86" />
    <path
       style="fill:none;stroke:#000000;stroke-width:0.250119;stroke-linecap:round;stroke-linejoin:round;stroke-miterlimit:10;stroke-dasharray:none;stroke-opacity:1"
       d="M 227.41869,27.467155 H 206.42841"
       id="path85" />
    <path
       style="fill:none;stroke:#000000;stroke-width:0.250119;stroke-linecap:round;stroke-linejoin:round;stroke-miterlimit:10;stroke-dasharray:none;stroke-opacity:1"
       d="m 44.432862,252.53938 0.77611,-0.1764 0.67028,-0.42333 0.423333,-0.67027 0.176387,-0.77613 -0.176387,-0.81137 -0.423333,-0.6703 -0.67028,-0.42333 -0.77611,-0.17637 -0.77611,0.17637 -0.67028,0.42333 -0.45861,0.6703 -0.14111,0.81137 0.14111,0.77613 0.45861,0.67027 0.67028,0.42333 0.77611,0.1764"
       id="path84" />
    <path
       style="fill:none;stroke:#000000;stroke-width:0.250119;stroke-linecap:round;stroke-linejoin:round;stroke-miterlimit:10;stroke-dasharray:none;stroke-opacity:1"
       d="m 31.415362,232.04298 0.81139,-0.17639 0.635,-0.42333 0.45861,-0.67028 0.14111,-0.81139 -0.14111,-0.77611 -0.45861,-0.67027 -0.635,-0.42334 -0.81139,-0.17639 -0.77611,0.17639 -0.67028,0.42334 -0.423333,0.67027 -0.176387,0.77611 0.176387,0.81139 0.423333,0.67028 0.67028,0.42333 0.77611,0.17639"
       id="path83" />
    <path
       style="fill:none;stroke:#000000;stroke-width:0.250119;stroke-linecap:round;stroke-linejoin:round;stroke-miterlimit:10;stroke-dasharray:none;stroke-opacity:1"
       d="m 52.440916,217.54382 0.776113,-0.17639 0.670276,-0.42333 0.423334,-0.67028 0.17639,-0.81139 -0.17639,-0.77611 -0.423334,-0.67028 -0.670276,-0.42333 -0.776113,-0.17639 -0.811387,0.17639 -0.670277,0.42333 -0.423334,0.67028 -0.176389,0.77611 0.176389,0.81139 0.423334,0.67028 0.670277,0.42333 0.811387,0.17639"
       id="path82" />
    <path
       style="fill:none;stroke:#000000;stroke-width:0.250119;stroke-linecap:round;stroke-linejoin:round;stroke-miterlimit:10;stroke-dasharray:none;stroke-opacity:1"
       d="m 176.93619,28.031599 0.77611,-0.176387 0.67028,-0.423334 0.42333,-0.670279 0.17639,-0.77611 -0.17639,-0.77611 -0.42333,-0.67028 -0.67028,-0.45861 -0.77611,-0.14111 -0.81139,0.14111 -0.635,0.45861 -0.45861,0.67028 -0.14111,0.77611 0.14111,0.77611 0.45861,0.670279 0.635,0.423334 0.81139,0.176387"
       id="path81" />
    <path
       style="fill:none;stroke:#000000;stroke-width:0.250119;stroke-linecap:round;stroke-linejoin:round;stroke-miterlimit:10;stroke-dasharray:none;stroke-opacity:1"
       d="m 176.93619,118.02521 0.77611,-0.14111 0.67028,-0.45861 0.42333,-0.67028 0.17639,-0.77611 -0.17639,-0.77611 -0.42333,-0.67028 -0.67028,-0.45861 -0.77611,-0.14111 -0.81139,0.14111 -0.635,0.45861 -0.45861,0.67028 -0.14111,0.77611 0.14111,0.77611 0.45861,0.67028 0.635,0.45861 0.81139,0.14111"
       id="path80" />
    <path
       style="fill:none;stroke:#000000;stroke-width:0.250119;stroke-linecap:round;stroke-linejoin:round;stroke-miterlimit:10;stroke-dasharray:none;stroke-opacity:1"
       d="m 31.909252,213.02826 0.811387,-0.14111 0.67028,-0.45861 0.423333,-0.67028 0.176387,-0.77611 -0.176387,-0.77611 -0.423333,-0.67028 -0.67028,-0.45861 -0.811387,-0.14111 -0.776113,0.14111 -0.670277,0.45861 -0.423333,0.67028 -0.17639,0.77611 0.17639,0.77611 0.423333,0.67028 0.670277,0.45861 0.776113,0.14111"
       id="path79" />
    <path
       style="fill:none;stroke:#000000;stroke-width:0.250119;stroke-linecap:round;stroke-linejoin:round;stroke-miterlimit:10;stroke-dasharray:none;stroke-opacity:1"
       d="m 321.92787,208.93604 -0.77613,0.14111 -0.67027,0.45861 -0.4586,0.67028 -0.14113,0.77611 0.14113,0.77611 0.4586,0.67028 0.67027,0.45861 0.77613,0.14111 0.7761,-0.14111 0.67027,-0.45861 0.45863,-0.67028 0.1411,-0.77611 -0.1411,-0.77611 -0.45863,-0.67028 -0.67027,-0.45861 -0.7761,-0.14111"
       id="path78" />
    <path
       style="fill:none;stroke:#000000;stroke-width:0.250119;stroke-linecap:round;stroke-linejoin:round;stroke-miterlimit:10;stroke-dasharray:none;stroke-opacity:1"
       d="m 128.64091,88.427152 0.77611,0.141113 0.67028,0.45861 0.42333,0.670277 0.17639,0.776113 -0.17639,0.77611 -0.42333,0.670277 -0.67028,0.458612 -0.77611,0.141111 -0.81139,-0.141111 -0.67027,-0.458612 -0.42334,-0.670277 -0.17639,-0.77611 0.17639,-0.776113 0.42334,-0.670277 0.67027,-0.45861 0.81139,-0.141113"
       id="path77" />
    <path
       style="fill:none;stroke:#000000;stroke-width:0.250119;stroke-linecap:round;stroke-linejoin:round;stroke-miterlimit:10;stroke-dasharray:none;stroke-opacity:1"
       d="m 225.23146,139.43882 0.77611,0.14111 0.67028,0.45861 0.45861,0.67028 0.1411,0.77611 -0.1411,0.77611 -0.45861,0.67028 -0.67028,0.42333 -0.77611,0.17639 -0.77611,-0.17639 -0.67028,-0.42333 -0.45861,-0.67028 -0.14111,-0.77611 0.14111,-0.77611 0.45861,-0.67028 0.67028,-0.45861 0.77611,-0.14111"
       id="path76" />
    <path
       style="fill:none;stroke:#000000;stroke-width:0.250119;stroke-linecap:round;stroke-linejoin:round;stroke-miterlimit:10;stroke-dasharray:none;stroke-opacity:1"
       d="m 241.91786,139.43882 0.7761,0.14111 0.67027,0.45861 0.45863,0.67028 0.1411,0.77611 -0.1411,0.77611 -0.45863,0.67028 -0.67027,0.42333 -0.7761,0.17639 -0.77613,-0.17639 -0.67027,-0.42333 -0.42333,-0.67028 -0.1764,-0.77611 0.1764,-0.77611 0.42333,-0.67028 0.67027,-0.45861 0.77613,-0.14111"
       id="path75" />
    <path
       style="fill:none;stroke:#000000;stroke-width:0.250119;stroke-linecap:round;stroke-linejoin:round;stroke-miterlimit:10;stroke-dasharray:none;stroke-opacity:1"
       d="m 111.91925,88.427152 0.77611,0.141113 0.67028,0.45861 0.45861,0.670277 0.14111,0.776113 -0.14111,0.77611 -0.45861,0.670277 -0.67028,0.458612 -0.77611,0.141111 -0.77611,-0.141111 -0.67028,-0.458612 -0.45861,-0.670277 -0.14111,-0.77611 0.14111,-0.776113 0.45861,-0.670277 0.67028,-0.45861 0.77611,-0.141113"
       id="path74" />
    <path
       style="fill:none;stroke:#000000;stroke-width:0.250119;stroke-linecap:round;stroke-linejoin:round;stroke-miterlimit:10;stroke-dasharray:none;stroke-opacity:1"
       d="m 37.412585,58.017708 0.811387,-0.14111 0.635,-0.45861 0.458613,-0.67028 0.14111,-0.77611 -0.14111,-0.77611 -0.458613,-0.670279 -0.635,-0.458611 -0.811387,-0.14111 -0.776113,0.14111 -0.670277,0.458611 -0.423333,0.670279 -0.17639,0.77611 0.17639,0.77611 0.423333,0.67028 0.670277,0.45861 0.776113,0.14111"
       id="path73" />
    <path
       style="fill:none;stroke:#000000;stroke-width:0.250119;stroke-linecap:round;stroke-linejoin:round;stroke-miterlimit:10;stroke-dasharray:none;stroke-opacity:1"
       d="m 37.412585,173.94049 0.811387,0.14111 0.635,0.45861 0.458613,0.67028 0.14111,0.77611 -0.14111,0.77611 -0.458613,0.67028 -0.635,0.42333 -0.811387,0.17639 -0.776113,-0.17639 -0.670277,-0.42333 -0.423333,-0.67028 -0.17639,-0.77611 0.17639,-0.77611 0.423333,-0.67028 0.670277,-0.45861 0.776113,-0.14111"
       id="path72" />
    <path
       style="fill:none;stroke:#000000;stroke-width:0.250119;stroke-linecap:round;stroke-linejoin:round;stroke-miterlimit:10;stroke-dasharray:none;stroke-opacity:1"
       d="m 37.412585,82.712152 h 0.105834 l 0.07055,-0.07055 0.07056,-0.07056 v -0.105834 -0.07056 l -0.07056,-0.105834 -0.07055,-0.03528 -0.105834,-0.03528 -0.07056,0.03528 -0.105834,0.03528 -0.03528,0.105834 -0.03528,0.07056 0.03528,0.105834 0.03528,0.07056 0.105834,0.07055 h 0.07056"
       id="path71" />
    <path
       style="fill:none;stroke:#000000;stroke-width:0.250119;stroke-linecap:round;stroke-linejoin:round;stroke-miterlimit:10;stroke-dasharray:none;stroke-opacity:1"
       d="m 316.42454,149.73993 0.10583,-0.0353 0.0705,-0.0353 0.0706,-0.10583 v -0.0706 -0.10584 l -0.0706,-0.0705 -0.0705,-0.0706 -0.10583,-0.0353 -0.10584,0.0353 -0.0706,0.0706 -0.0706,0.0705 v 0.10584 0.0706 l 0.0706,0.10583 0.0706,0.0353 0.10584,0.0353"
       id="path70" />
    <path
       style="fill:none;stroke:#000000;stroke-width:0.250119;stroke-linecap:round;stroke-linejoin:round;stroke-miterlimit:10;stroke-dasharray:none;stroke-opacity:1"
       d="m 316.91841,33.429099 -0.88194,0.141112 -0.74083,0.458611 -0.56444,0.670277 -0.3175,0.846666 v 0.881946 l 0.3175,0.811388 0.56444,0.705556 0.74083,0.423333 0.88194,0.17639 0.88196,-0.17639 0.7761,-0.423333 0.56444,-0.705556 0.28223,-0.811388 v -0.881946 l -0.28223,-0.846666 -0.56444,-0.670277 -0.7761,-0.458611 -0.88196,-0.141112"
       id="path69" />
    <path
       style="fill:none;stroke:#000000;stroke-width:0.250119;stroke-linecap:round;stroke-linejoin:round;stroke-miterlimit:10;stroke-dasharray:none;stroke-opacity:1"
       d="m 316.91841,198.5291 0.88196,-0.14112 0.7761,-0.45861 0.56444,-0.67027 0.28223,-0.84667 v -0.88195 l -0.28223,-0.81138 -0.56444,-0.70556 -0.7761,-0.42333 -0.88196,-0.17639 -0.88194,0.17639 -0.74083,0.42333 -0.56444,0.70556 -0.3175,0.81138 v 0.88195 l 0.3175,0.84667 0.56444,0.67027 0.74083,0.45861 0.88194,0.14112"
       id="path68" />
    <path
       style="fill:none;stroke:#000000;stroke-width:0.250119;stroke-linecap:round;stroke-linejoin:round;stroke-miterlimit:10;stroke-dasharray:none;stroke-opacity:1"
       d="m 36.918695,193.41382 -0.881943,0.17639 -0.740833,0.42333 -0.564447,0.70556 -0.3175,0.81138 v 0.88195 l 0.3175,0.84667 0.564447,0.67027 0.740833,0.45861 0.881943,0.14112 0.881944,-0.14112 0.776113,-0.45861 0.564443,-0.67027 0.282224,-0.84667 v -0.88195 l -0.282224,-0.81138 -0.564443,-0.70556 -0.776113,-0.42333 -0.881944,-0.17639"
       id="path67" />
    <path
       style="fill:none;stroke:#000000;stroke-width:0.250119;stroke-linecap:round;stroke-linejoin:round;stroke-miterlimit:10;stroke-dasharray:none;stroke-opacity:1"
       d="m 36.918695,38.544378 0.881944,-0.17639 0.776113,-0.423333 0.564443,-0.705556 0.282224,-0.811388 v -0.881946 l -0.282224,-0.846666 -0.564443,-0.670277 -0.776113,-0.458611 -0.881944,-0.141112 -0.881943,0.141112 -0.740833,0.458611 -0.564447,0.670277 -0.3175,0.846666 v 0.881946 l 0.3175,0.811388 0.564447,0.705556 0.740833,0.423333 0.881943,0.17639"
       id="path66" />
    <path
       style="fill:none;stroke:#000000;stroke-width:0.250119;stroke-linecap:round;stroke-linejoin:round;stroke-miterlimit:10;stroke-dasharray:none;stroke-opacity:1"
       d="M 281.92287,146.98826 V 84.969931"
       id="path65" />
    <path
       style="fill:none;stroke:#000000;stroke-width:0.250119;stroke-linecap:round;stroke-linejoin:round;stroke-miterlimit:10;stroke-dasharray:none;stroke-opacity:1"
       d="m 277.93647,150.97465 0.77611,-0.0705 0.74083,-0.24695 0.70556,-0.35278 0.59973,-0.49388 0.49388,-0.59973 0.35279,-0.70555 0.24694,-0.74084 0.0706,-0.77611"
       id="path64" />
    <path
       style="fill:none;stroke:#000000;stroke-width:0.250119;stroke-linecap:round;stroke-linejoin:round;stroke-miterlimit:10;stroke-dasharray:none;stroke-opacity:1"
       d="m 250.91369,150.97465 h 27.02278"
       id="path63" />
    <path
       style="fill:none;stroke:#000000;stroke-width:0.250119;stroke-linecap:round;stroke-linejoin:round;stroke-miterlimit:10;stroke-dasharray:none;stroke-opacity:1"
       d="m 246.92729,146.98826 0.0706,0.77611 0.24693,0.74084 0.35277,0.70555 0.4939,0.59973 0.59973,0.49388 0.70554,0.35278 0.74083,0.24695 0.77613,0.0705"
       id="path62" />
    <path
       style="fill:none;stroke:#000000;stroke-width:0.250119;stroke-linecap:round;stroke-linejoin:round;stroke-miterlimit:10;stroke-dasharray:none;stroke-opacity:1"
       d="M 246.92729,84.969931 V 146.98826"
       id="path61" />
    <path
       style="fill:none;stroke:#000000;stroke-width:0.250119;stroke-linecap:round;stroke-linejoin:round;stroke-miterlimit:10;stroke-dasharray:none;stroke-opacity:1"
       d="m 250.91369,80.983542 -0.77613,0.07056 -0.74083,0.211667 -0.70554,0.388053 -0.59973,0.49389 -0.4939,0.599723 -0.35277,0.705554 -0.24693,0.740833 -0.0706,0.776113"
       id="path60" />
    <path
       style="fill:none;stroke:#000000;stroke-width:0.250119;stroke-linecap:round;stroke-linejoin:round;stroke-miterlimit:10;stroke-dasharray:none;stroke-opacity:1"
       d="M 277.93647,80.983542 H 250.91369"
       id="path59" />
    <path
       style="fill:none;stroke:#000000;stroke-width:0.250119;stroke-linecap:round;stroke-linejoin:round;stroke-miterlimit:10;stroke-dasharray:none;stroke-opacity:1"
       d="m 281.92287,84.969931 -0.0706,-0.776113 -0.24694,-0.740833 -0.35279,-0.705554 -0.49388,-0.599723 -0.59973,-0.49389 -0.70556,-0.388053 -0.74083,-0.211667 -0.77611,-0.07056"
       id="path58" />
    <path
       style="fill:none;stroke:#000000;stroke-width:0.250119;stroke-linecap:round;stroke-linejoin:round;stroke-miterlimit:10;stroke-dasharray:none;stroke-opacity:1"
       d="M 321.92787,69.976875 V 161.98132"
       id="path57" />
    <path
       style="fill:none;stroke:#000000;stroke-width:0.250119;stroke-linecap:round;stroke-linejoin:round;stroke-miterlimit:10;stroke-dasharray:none;stroke-opacity:1"
       d="m 325.91424,65.990488 -0.7761,0.07055 -0.74083,0.211666 -0.70557,0.388057 -0.5997,0.49389 -0.4939,0.59972 -0.35277,0.705556 -0.24696,0.740834 -0.0705,0.77611"
       id="path56" />
    <path
       style="fill:none;stroke:#000000;stroke-width:0.250119;stroke-linecap:round;stroke-linejoin:round;stroke-miterlimit:10;stroke-dasharray:none;stroke-opacity:1"
       d="m 332.93454,65.990488 h -7.0203"
       id="path55" />
    <path
       style="fill:none;stroke:#000000;stroke-width:0.250119;stroke-linecap:round;stroke-linejoin:round;stroke-miterlimit:10;stroke-dasharray:none;stroke-opacity:1"
       d="m 336.92091,69.976875 -0.0705,-0.77611 -0.24696,-0.740834 -0.35277,-0.705556 -0.4939,-0.59972 -0.5997,-0.49389 -0.70557,-0.388057 -0.74083,-0.211666 -0.7761,-0.07055"
       id="path54" />
    <path
       style="fill:none;stroke:#000000;stroke-width:0.250119;stroke-linecap:round;stroke-linejoin:round;stroke-miterlimit:10;stroke-dasharray:none;stroke-opacity:1"
       d="M 336.92091,161.98132 V 69.976875"
       id="path53" />
    <path
       style="fill:none;stroke:#000000;stroke-width:0.250119;stroke-linecap:round;stroke-linejoin:round;stroke-miterlimit:10;stroke-dasharray:none;stroke-opacity:1"
       d="m 332.93454,165.96771 0.7761,-0.0706 0.74083,-0.21166 0.70557,-0.38806 0.5997,-0.49389 0.4939,-0.59972 0.35277,-0.70556 0.24696,-0.74083 0.0705,-0.77611"
       id="path52" />
    <path
       style="fill:none;stroke:#000000;stroke-width:0.250119;stroke-linecap:round;stroke-linejoin:round;stroke-miterlimit:10;stroke-dasharray:none;stroke-opacity:1"
       d="m 325.91424,165.96771 h 7.0203"
       id="path51" />
    <path
       style="fill:none;stroke:#000000;stroke-width:0.250119;stroke-linecap:round;stroke-linejoin:round;stroke-miterlimit:10;stroke-dasharray:none;stroke-opacity:1"
       d="m 321.92787,161.98132 0.0705,0.77611 0.24696,0.74083 0.35277,0.70556 0.4939,0.59972 0.5997,0.49389 0.70557,0.38806 0.74083,0.21166 0.7761,0.0706"
       id="path50" />
    <path
       style="fill:none;stroke:#000000;stroke-width:0.250119;stroke-linecap:round;stroke-linejoin:round;stroke-miterlimit:10;stroke-dasharray:none;stroke-opacity:1"
       d="m 20.937863,165.96771 h 6.984999"
       id="path49" />
    <path
       style="fill:none;stroke:#000000;stroke-width:0.250119;stroke-linecap:round;stroke-linejoin:round;stroke-miterlimit:10;stroke-dasharray:none;stroke-opacity:1"
       d="m 16.916197,161.98132 0.07056,0.77611 0.246944,0.74083 0.352777,0.70556 0.493889,0.59972 0.635,0.49389 0.670277,0.38806 0.776113,0.21166 0.77611,0.0706"
       id="path48" />
    <path
       style="fill:none;stroke:#000000;stroke-width:0.250119;stroke-linecap:round;stroke-linejoin:round;stroke-miterlimit:10;stroke-dasharray:none;stroke-opacity:1"
       d="M 16.916197,69.976875 V 161.98132"
       id="path47" />
    <path
       style="fill:none;stroke:#000000;stroke-width:0.250119;stroke-linecap:round;stroke-linejoin:round;stroke-miterlimit:10;stroke-dasharray:none;stroke-opacity:1"
       d="m 20.937863,65.990488 -0.77611,0.07055 -0.776113,0.211666 -0.670277,0.388057 -0.635,0.49389 -0.493889,0.59972 -0.352777,0.705556 -0.246944,0.740834 -0.07056,0.77611"
       id="path46" />
    <path
       style="fill:none;stroke:#000000;stroke-width:0.250119;stroke-linecap:round;stroke-linejoin:round;stroke-miterlimit:10;stroke-dasharray:none;stroke-opacity:1"
       d="M 27.922862,65.990488 H 20.937863"
       id="path45" />
    <path
       style="fill:none;stroke:#000000;stroke-width:0.250119;stroke-linecap:round;stroke-linejoin:round;stroke-miterlimit:10;stroke-dasharray:none;stroke-opacity:1"
       d="m 31.909252,69.976875 -0.07056,-0.77611 -0.211667,-0.740834 -0.388057,-0.705556 -0.493887,-0.59972 -0.599723,-0.49389 -0.705556,-0.388057 -0.740834,-0.211666 -0.77611,-0.07055"
       id="path44" />
    <path
       style="fill:none;stroke:#000000;stroke-width:0.250119;stroke-linecap:round;stroke-linejoin:round;stroke-miterlimit:10;stroke-dasharray:none;stroke-opacity:1"
       d="M 31.909252,161.98132 V 69.976875"
       id="path43" />
    <path
       style="fill:none;stroke:#000000;stroke-width:0.250119;stroke-linecap:round;stroke-linejoin:round;stroke-miterlimit:10;stroke-dasharray:none;stroke-opacity:1"
       d="m 27.922862,165.96771 0.77611,-0.0706 0.740834,-0.21166 0.705556,-0.38806 0.599723,-0.49389 0.493887,-0.59972 0.388057,-0.70556 0.211667,-0.74083 0.07056,-0.77611"
       id="path42" />
    <path
       style="fill:none;stroke:#000000;stroke-width:0.250119;stroke-linecap:round;stroke-linejoin:round;stroke-miterlimit:10;stroke-dasharray:none;stroke-opacity:1"
       d="m 71.914248,146.98826 0.07056,0.77611 0.246944,0.74084 0.352779,0.70555 0.529167,0.59973 0.599721,0.49388 0.670279,0.35278 0.77611,0.24695 0.776111,0.0705"
       id="path41" />
    <path
       style="fill:none;stroke:#000000;stroke-width:0.250119;stroke-linecap:round;stroke-linejoin:round;stroke-miterlimit:10;stroke-dasharray:none;stroke-opacity:1"
       d="M 71.914248,84.969931 V 146.98826"
       id="path40" />
    <path
       style="fill:none;stroke:#000000;stroke-width:0.250119;stroke-linecap:round;stroke-linejoin:round;stroke-miterlimit:10;stroke-dasharray:none;stroke-opacity:1"
       d="m 75.935915,80.983542 -0.77611,0.07056 -0.77611,0.211667 -0.67028,0.388053 -0.59972,0.49389 -0.529167,0.599723 -0.35278,0.705554 -0.246943,0.740833 -0.07056,0.776113"
       id="path39" />
    <path
       style="fill:none;stroke:#000000;stroke-width:0.250119;stroke-linecap:round;stroke-linejoin:round;stroke-miterlimit:10;stroke-dasharray:none;stroke-opacity:1"
       d="M 102.92341,80.983542 H 75.935915"
       id="path38" />
    <path
       style="fill:none;stroke:#000000;stroke-width:0.250119;stroke-linecap:round;stroke-linejoin:round;stroke-miterlimit:10;stroke-dasharray:none;stroke-opacity:1"
       d="m 106.9098,84.969931 -0.0706,-0.776113 -0.21166,-0.740833 -0.38806,-0.705554 -0.49389,-0.599723 -0.59972,-0.49389 -0.70555,-0.388053 -0.74084,-0.211667 -0.77611,-0.07056"
       id="path37" />
    <path
       style="fill:none;stroke:#000000;stroke-width:0.250119;stroke-linecap:round;stroke-linejoin:round;stroke-miterlimit:10;stroke-dasharray:none;stroke-opacity:1"
       d="M 106.9098,146.98826 V 84.969931"
       id="path36" />
    <path
       style="fill:none;stroke:#000000;stroke-width:0.250119;stroke-linecap:round;stroke-linejoin:round;stroke-miterlimit:10;stroke-dasharray:none;stroke-opacity:1"
       d="m 102.92341,150.97465 0.77611,-0.0705 0.74084,-0.24695 0.70555,-0.35278 0.59973,-0.49388 0.49388,-0.59973 0.38806,-0.70555 0.21167,-0.74084 0.0706,-0.77611"
       id="path35" />
    <path
       style="fill:none;stroke:#000000;stroke-width:0.250119;stroke-linecap:round;stroke-linejoin:round;stroke-miterlimit:10;stroke-dasharray:none;stroke-opacity:1"
       d="M 75.935915,150.97465 H 102.92341"
       id="path34" />
    <path
       style="fill:none;stroke:#000000;stroke-width:0.250119;stroke-linecap:round;stroke-linejoin:round;stroke-miterlimit:10;stroke-dasharray:none;stroke-opacity:1"
       d="m 296.91591,254.97354 0.0353,0.21167 0.0353,0.17637 0.10584,0.1764 0.1411,0.1411 0.14113,0.14113 0.17637,0.0705 0.1764,0.0706 h 0.21166"
       id="path32" />
    <path
       style="fill:none;stroke:#000000;stroke-width:0.250119;stroke-linecap:round;stroke-linejoin:round;stroke-miterlimit:10;stroke-dasharray:none;stroke-opacity:1"
       d="m 55.933416,255.96131 h 0.176389 l 0.211667,-0.0706 0.17639,-0.0705 0.14111,-0.14113 0.105833,-0.1411 0.105834,-0.1764 0.07056,-0.17637 v -0.21167"
       id="path22" />
    <path
       style="fill:none;stroke:#000000;stroke-width:0.250119;stroke-linecap:round;stroke-linejoin:round;stroke-miterlimit:10;stroke-dasharray:none;stroke-opacity:1"
       d="m 37.412585,149.21076 0.105834,0.0353 0.07055,0.0706 0.07056,0.0705 v 0.10584 0.0706 l -0.07056,0.10583 -0.07055,0.0353 -0.105834,0.0353 -0.07056,-0.0353 -0.105834,-0.0353 -0.03528,-0.10583 -0.03528,-0.0706 0.03528,-0.10584 0.03528,-0.0705 0.105834,-0.0706 0.07056,-0.0353"
       id="path19" />
    <path
       style="fill:none;stroke:#000000;stroke-width:0.250119;stroke-linecap:round;stroke-linejoin:round;stroke-miterlimit:10;stroke-dasharray:none;stroke-opacity:1"
       d="m 316.42454,82.218265 0.10583,0.03528 0.0705,0.03528 0.0706,0.105834 v 0.07056 0.105834 l -0.0706,0.07056 -0.0705,0.07055 h -0.10583 -0.10584 l -0.0706,-0.07055 -0.0706,-0.07056 v -0.105834 -0.07056 l 0.0706,-0.105834 0.0706,-0.03528 0.10584,-0.03528"
       id="path18" />
    <path
       style="fill:none;stroke:#000000;stroke-width:0.250119;stroke-linecap:round;stroke-linejoin:round;stroke-miterlimit:10;stroke-dasharray:none;stroke-opacity:1"
       d="m 316.42454,53.925488 0.7761,0.14111 0.67027,0.458611 0.45863,0.670279 0.1411,0.77611 -0.1411,0.77611 -0.45863,0.67028 -0.67027,0.45861 -0.7761,0.14111 -0.77613,-0.14111 -0.67027,-0.45861 -0.4586,-0.67028 -0.14113,-0.77611 0.14113,-0.77611 0.4586,-0.670279 0.67027,-0.458611 0.77613,-0.14111"
       id="path17" />
    <path
       style="fill:none;stroke:#000000;stroke-width:0.250119;stroke-linecap:round;stroke-linejoin:round;stroke-miterlimit:10;stroke-dasharray:none;stroke-opacity:1"
       d="m 316.42454,178.03271 0.7761,-0.17639 0.67027,-0.42333 0.45863,-0.67028 0.1411,-0.77611 -0.1411,-0.77611 -0.45863,-0.67028 -0.67027,-0.45861 -0.7761,-0.14111 -0.77613,0.14111 -0.67027,0.45861 -0.4586,0.67028 -0.14113,0.77611 0.14113,0.77611 0.4586,0.67028 0.67027,0.42333 0.77613,0.17639"
       id="path16" />
    <path
       style="fill:none;stroke:#000000;stroke-width:0.250119;stroke-linecap:round;stroke-linejoin:round;stroke-miterlimit:10;stroke-dasharray:none;stroke-opacity:1"
       d="m 241.91786,88.427152 -0.77613,0.141113 -0.67027,0.45861 -0.42333,0.670277 -0.1764,0.776113 0.1764,0.77611 0.42333,0.670277 0.67027,0.458612 0.77613,0.141111 0.7761,-0.141111 0.67027,-0.458612 0.45863,-0.670277 0.1411,-0.77611 -0.1411,-0.776113 -0.45863,-0.670277 -0.67027,-0.45861 -0.7761,-0.141113"
       id="path15" />
    <path
       style="fill:none;stroke:#000000;stroke-width:0.250119;stroke-linecap:round;stroke-linejoin:round;stroke-miterlimit:10;stroke-dasharray:none;stroke-opacity:1"
       d="m 225.23146,88.427152 -0.77611,0.141113 -0.67028,0.45861 -0.45861,0.670277 -0.14111,0.776113 0.14111,0.77611 0.45861,0.670277 0.67028,0.458612 0.77611,0.141111 0.77611,-0.141111 0.67028,-0.458612 0.45861,-0.670277 0.1411,-0.77611 -0.1411,-0.776113 -0.45861,-0.670277 -0.67028,-0.45861 -0.77611,-0.141113"
       id="path14" />
    <path
       style="fill:none;stroke:#000000;stroke-width:0.250119;stroke-linecap:round;stroke-linejoin:round;stroke-miterlimit:10;stroke-dasharray:none;stroke-opacity:1"
       d="m 128.64091,139.43882 -0.81139,0.14111 -0.67027,0.45861 -0.42334,0.67028 -0.17639,0.77611 0.17639,0.77611 0.42334,0.67028 0.67027,0.42333 0.81139,0.17639 0.77611,-0.17639 0.67028,-0.42333 0.42333,-0.67028 0.17639,-0.77611 -0.17639,-0.77611 -0.42333,-0.67028 -0.67028,-0.45861 -0.77611,-0.14111"
       id="path13" />
    <path
       style="fill:none;stroke:#000000;stroke-width:0.250119;stroke-linecap:round;stroke-linejoin:round;stroke-miterlimit:10;stroke-dasharray:none;stroke-opacity:1"
       d="m 111.91925,139.43882 -0.77611,0.14111 -0.67028,0.45861 -0.45861,0.67028 -0.14111,0.77611 0.14111,0.77611 0.45861,0.67028 0.67028,0.42333 0.77611,0.17639 0.77611,-0.17639 0.67028,-0.42333 0.45861,-0.67028 0.14111,-0.77611 -0.14111,-0.77611 -0.45861,-0.67028 -0.67028,-0.45861 -0.77611,-0.14111"
       id="path12" />
    <path
       style="fill:none;stroke:#000000;stroke-width:0.250119;stroke-linecap:round;stroke-linejoin:round;stroke-miterlimit:10;stroke-dasharray:none;stroke-opacity:1"
       d="m 309.43954,248.41188 0.7761,0.17637 0.67027,0.42333 0.42333,0.6703 0.1764,0.81137 -0.1764,0.77613 -0.42333,0.67027 -0.67027,0.42333 -0.7761,0.1764 -0.8114,-0.1764 -0.635,-0.42333 -0.4586,-0.67027 -0.1764,-0.77613 0.1764,-0.81137 0.4586,-0.6703 0.635,-0.42333 0.8114,-0.17637"
       id="path11" />
    <path
       style="fill:none;stroke:#000000;stroke-width:0.250119;stroke-linecap:round;stroke-linejoin:round;stroke-miterlimit:10;stroke-dasharray:none;stroke-opacity:1"
       d="m 301.43147,213.41632 0.77611,0.17639 0.67029,0.42333 0.4586,0.67028 0.14111,0.77611 -0.14111,0.81139 -0.4586,0.67028 -0.67029,0.42333 -0.77611,0.17639 -0.7761,-0.17639 -0.67029,-0.42333 -0.45861,-0.67028 -0.1411,-0.81139 0.1411,-0.77611 0.45861,-0.67028 0.67029,-0.42333 0.7761,-0.17639"
       id="path10" />
    <path
       style="fill:none;stroke:#000000;stroke-width:0.250119;stroke-linecap:round;stroke-linejoin:round;stroke-miterlimit:10;stroke-dasharray:none;stroke-opacity:1"
       d="m 322.42174,227.91548 0.77613,0.17639 0.67027,0.42334 0.4586,0.67027 0.14113,0.77611 -0.14113,0.81139 -0.4586,0.67028 -0.67027,0.42333 -0.77613,0.17639 -0.7761,-0.17639 -0.67027,-0.42333 -0.45863,-0.67028 -0.1411,-0.81139 0.1411,-0.77611 0.45863,-0.67027 0.67027,-0.42334 0.7761,-0.17639"
       id="path9" />
    <path
       style="fill:none;stroke:#000000;stroke-width:0.250119;stroke-linecap:round;stroke-linejoin:round;stroke-miterlimit:10;stroke-dasharray:none;stroke-opacity:1"
       d="m 126.41841,27.467155 h 20.99028"
       id="path8" />
    <path
       style="fill:none;stroke:#000000;stroke-width:0.250119;stroke-linecap:round;stroke-linejoin:round;stroke-miterlimit:10;stroke-dasharray:none;stroke-opacity:1"
       d="m 126.41841,24.468546 -0.56444,0.14111 -0.49389,0.3175 -0.3175,0.49389 -0.10583,0.564443 0.10583,0.564443 0.3175,0.49389 0.49389,0.3175 0.56444,0.105833"
       id="path7" />
    <path
       style="fill:none;stroke:#000000;stroke-width:0.250119;stroke-linecap:round;stroke-linejoin:round;stroke-miterlimit:10;stroke-dasharray:none;stroke-opacity:1"
       d="m 126.41841,24.468546 h 20.99028"
       id="path6" />
    <path
       style="fill:none;stroke:#000000;stroke-width:0.250119;stroke-linecap:round;stroke-linejoin:round;stroke-miterlimit:10;stroke-dasharray:none;stroke-opacity:1"
       d="m 147.40869,27.467155 0.59972,-0.105833 0.49389,-0.3175 0.3175,-0.49389 0.10583,-0.564443 -0.10583,-0.564443 -0.3175,-0.49389 -0.49389,-0.3175 -0.59972,-0.14111"
       id="path5" />
    <path
       style="fill:none;stroke:#000000;stroke-width:0.250119;stroke-linecap:round;stroke-linejoin:round;stroke-miterlimit:10;stroke-dasharray:none;stroke-opacity:1"
       d="m 126.41841,77.491042 -0.56444,-0.141111 -0.49389,-0.3175 -0.3175,-0.493889 -0.10583,-0.564444 0.10583,-0.564444 0.3175,-0.493889 0.49389,-0.3175 0.56444,-0.105834"
       id="path4" />
    <path
       style="fill:none;stroke:#000000;stroke-width:0.250119;stroke-linecap:round;stroke-linejoin:round;stroke-miterlimit:10;stroke-dasharray:none;stroke-opacity:1"
       d="m 126.41841,74.492431 h 20.99028"
       id="path3" />
    <path
       style="fill:none;stroke:#000000;stroke-width:0.250119;stroke-linecap:round;stroke-linejoin:round;stroke-miterlimit:10;stroke-dasharray:none;stroke-opacity:1"
       d="m 147.40869,74.492431 0.59972,0.105834 0.49389,0.3175 0.3175,0.493889 0.10583,0.564444 -0.10583,0.564444 -0.3175,0.493889 -0.49389,0.3175 -0.59972,0.141111"
       id="path2" />
    <path
       style="fill:none;stroke:#000000;stroke-width:0.250119;stroke-linecap:round;stroke-linejoin:round;stroke-miterlimit:10;stroke-dasharray:none;stroke-opacity:1"
       d="m 126.41841,77.491042 h 20.99028"
       id="path1" />
  </g>
</svg>
