<?xml version="1.0" encoding="UTF-8" standalone="no"?>
<!-- Created with Inkscape (http://www.inkscape.org/) -->

<svg
   version="1.1"
   id="svg1"
   width="1357.9072"
   height="993.54889"
   viewBox="0 0 1357.9072 993.54887"
   sodipodi:docname="châssis_2.svg"
   inkscape:version="1.3 (0e150ed6c4, 2023-07-21)"
   xmlns:inkscape="http://www.inkscape.org/namespaces/inkscape"
   xmlns:sodipodi="http://sodipodi.sourceforge.net/DTD/sodipodi-0.dtd"
   xmlns="http://www.w3.org/2000/svg"
   xmlns:svg="http://www.w3.org/2000/svg">
  <defs
     id="defs1" />
  <sodipodi:namedview
     id="namedview1"
     pagecolor="#ffffff"
     bordercolor="#999999"
     borderopacity="1"
     inkscape:showpageshadow="2"
     inkscape:pageopacity="0"
     inkscape:pagecheckerboard="0"
     inkscape:deskcolor="#d1d1d1"
     inkscape:zoom="0.52724972"
     inkscape:cx="808.91461"
     inkscape:cy="508.29804"
     inkscape:window-width="1920"
     inkscape:window-height="1051"
     inkscape:window-x="-9"
     inkscape:window-y="-9"
     inkscape:window-maximized="1"
     inkscape:current-layer="g1">
    <inkscape:page
       x="0"
       y="0"
       inkscape:label="1"
       id="page1"
       width="1357.9072"
       height="993.54889"
       margin="0"
       bleed="0" />
  </sodipodi:namedview>
  <g
     inkscape:groupmode="layer"
     id="layer2"
     inkscape:label="calque 2"
     style="display:inline">
    <path
       style="fill:none;stroke:#000000;stroke-width:0.945333;stroke-linecap:round;stroke-linejoin:round;stroke-miterlimit:10;stroke-dasharray:none;stroke-opacity:1"
       d="M 1135.4582,646.54051 V 964.00719"
       id="path33" />
    <path
       style="fill:none;stroke:#000000;stroke-width:0.945333;stroke-linecap:round;stroke-linejoin:round;stroke-miterlimit:10;stroke-dasharray:none;stroke-opacity:1"
       d="m 1139.3249,967.74049 h 109.6"
       id="path31" />
    <path
       style="fill:none;stroke:#000000;stroke-width:0.945333;stroke-linecap:round;stroke-linejoin:round;stroke-miterlimit:10;stroke-dasharray:none;stroke-opacity:1"
       d="m 1248.9249,967.74049 75.6,-75.46666"
       id="path30" />
    <path
       style="fill:none;stroke:#000000;stroke-width:0.945333;stroke-linecap:round;stroke-linejoin:round;stroke-miterlimit:10;stroke-dasharray:none;stroke-opacity:1"
       d="M 1324.5249,892.27383 V 79.607193"
       id="path29" />
    <path
       style="fill:none;stroke:#000000;stroke-width:0.945333;stroke-linecap:round;stroke-linejoin:round;stroke-miterlimit:10;stroke-dasharray:none;stroke-opacity:1"
       d="M 1324.5249,79.607193 1154.3916,22.940525"
       id="path28" />
    <path
       style="fill:none;stroke:#000000;stroke-width:0.945333;stroke-linecap:round;stroke-linejoin:round;stroke-miterlimit:10;stroke-dasharray:none;stroke-opacity:1"
       d="M 1154.3916,22.940525 H 209.45821"
       id="path27" />
    <path
       style="fill:none;stroke:#000000;stroke-width:0.945333;stroke-linecap:round;stroke-linejoin:round;stroke-miterlimit:10;stroke-dasharray:none;stroke-opacity:1"
       d="M 209.45821,22.940525 39.458214,79.607193"
       id="path26" />
    <path
       style="fill:none;stroke:#000000;stroke-width:0.945333;stroke-linecap:round;stroke-linejoin:round;stroke-miterlimit:10;stroke-dasharray:none;stroke-opacity:1"
       d="M 39.458214,79.607193 V 892.27383"
       id="path25" />
    <path
       style="fill:none;stroke:#000000;stroke-width:0.945333;stroke-linecap:round;stroke-linejoin:round;stroke-miterlimit:10;stroke-dasharray:none;stroke-opacity:1"
       d="m 39.458214,892.27383 75.599996,75.46666"
       id="path24" />
    <path
       style="fill:none;stroke:#000000;stroke-width:0.945333;stroke-linecap:round;stroke-linejoin:round;stroke-miterlimit:10;stroke-dasharray:none;stroke-opacity:1"
       d="M 115.05821,967.74049 H 224.6582"
       id="path23" />
    <path
       style="fill:none;stroke:#000000;stroke-width:0.945333;stroke-linecap:round;stroke-linejoin:round;stroke-miterlimit:10;stroke-dasharray:none;stroke-opacity:1"
       d="M 228.39154,964.00719 V 646.54051"
       id="path21" />
    <path
       style="fill:none;stroke:#000000;stroke-width:0.945333;stroke-linecap:round;stroke-linejoin:round;stroke-miterlimit:10;stroke-dasharray:none;stroke-opacity:1"
       d="M 228.39154,646.54051 H 1135.4582"
       id="path20" />
  </g>
  <g
     id="g1"
     inkscape:groupmode="layer"
     inkscape:label="1">
    <path
       style="fill:none;stroke:#000000;stroke-width:0.945333;stroke-linecap:round;stroke-linejoin:round;stroke-miterlimit:10;stroke-dasharray:none;stroke-opacity:1"
       d="M 872.79155,281.87385 H 793.45819"
       id="path92" />
    <path
       style="fill:none;stroke:#000000;stroke-width:0.945333;stroke-linecap:round;stroke-linejoin:round;stroke-miterlimit:10;stroke-dasharray:none;stroke-opacity:1"
       d="m 872.79155,293.20718 2.1333,-0.53333 1.8667,-1.2 1.2,-1.86667 0.5333,-2.13333 -0.5333,-2.13333 -1.2,-1.86667 -1.8667,-1.2 -2.1333,-0.4"
       id="path91" />
    <path
       style="fill:none;stroke:#000000;stroke-width:0.945333;stroke-linecap:round;stroke-linejoin:round;stroke-miterlimit:10;stroke-dasharray:none;stroke-opacity:1"
       d="M 872.79155,293.20718 H 793.45819"
       id="path90" />
    <path
       style="fill:none;stroke:#000000;stroke-width:0.945333;stroke-linecap:round;stroke-linejoin:round;stroke-miterlimit:10;stroke-dasharray:none;stroke-opacity:1"
       d="m 793.45819,281.87385 -2.13333,0.4 -1.86667,1.2 -1.2,1.86667 -0.53333,2.13333 0.53333,2.13333 1.2,1.86667 1.86667,1.2 2.13333,0.53333"
       id="path89" />
    <path
       style="fill:none;stroke:#000000;stroke-width:0.945333;stroke-linecap:round;stroke-linejoin:round;stroke-miterlimit:10;stroke-dasharray:none;stroke-opacity:1"
       d="m 793.45819,104.14052 -2.13333,-0.4 -1.86667,-1.2 -1.2,-1.86667 -0.53333,-2.133327 0.53333,-2.13333 1.2,-1.86667 1.86667,-1.2 2.13333,-0.53333"
       id="path88" />
    <path
       style="fill:none;stroke:#000000;stroke-width:0.945333;stroke-linecap:round;stroke-linejoin:round;stroke-miterlimit:10;stroke-dasharray:none;stroke-opacity:1"
       d="M 872.79155,92.807193 H 793.45819"
       id="path87" />
    <path
       style="fill:none;stroke:#000000;stroke-width:0.945333;stroke-linecap:round;stroke-linejoin:round;stroke-miterlimit:10;stroke-dasharray:none;stroke-opacity:1"
       d="m 872.79155,92.807193 2.1333,0.53333 1.8667,1.2 1.2,1.86667 0.5333,2.13333 -0.5333,2.133327 -1.2,1.86667 -1.8667,1.2 -2.1333,0.4"
       id="path86" />
    <path
       style="fill:none;stroke:#000000;stroke-width:0.945333;stroke-linecap:round;stroke-linejoin:round;stroke-miterlimit:10;stroke-dasharray:none;stroke-opacity:1"
       d="M 872.79155,104.14052 H 793.45819"
       id="path85" />
    <path
       style="fill:none;stroke:#000000;stroke-width:0.945333;stroke-linecap:round;stroke-linejoin:round;stroke-miterlimit:10;stroke-dasharray:none;stroke-opacity:1"
       d="m 181.19154,954.80719 2.93333,-0.6667 2.53334,-1.6 1.6,-2.5333 0.66666,-2.9334 -0.66666,-3.0666 -1.6,-2.5334 -2.53334,-1.6 -2.93333,-0.6666 -2.93333,0.6666 -2.53334,1.6 -1.73333,2.5334 -0.53333,3.0666 0.53333,2.9334 1.73333,2.5333 2.53334,1.6 2.93333,0.6667"
       id="path84" />
    <path
       style="fill:none;stroke:#000000;stroke-width:0.945333;stroke-linecap:round;stroke-linejoin:round;stroke-miterlimit:10;stroke-dasharray:none;stroke-opacity:1"
       d="m 131.99154,877.3405 3.06667,-0.66667 2.4,-1.6 1.73333,-2.53333 0.53333,-3.06667 -0.53333,-2.93333 -1.73333,-2.53333 -2.4,-1.6 -3.06667,-0.66667 -2.93333,0.66667 -2.53334,1.6 -1.6,2.53333 -0.66666,2.93333 0.66666,3.06667 1.6,2.53333 2.53334,1.6 2.93333,0.66667"
       id="path83" />
    <path
       style="fill:none;stroke:#000000;stroke-width:0.945333;stroke-linecap:round;stroke-linejoin:round;stroke-miterlimit:10;stroke-dasharray:none;stroke-opacity:1"
       d="m 211.4582,822.5405 2.93334,-0.66666 2.53333,-1.6 1.6,-2.53334 0.66667,-3.06666 -0.66667,-2.93334 -1.6,-2.53333 -2.53333,-1.6 -2.93334,-0.66667 -3.06666,0.66667 -2.53333,1.6 -1.6,2.53333 -0.66667,2.93334 0.66667,3.06666 1.6,2.53334 2.53333,1.6 3.06666,0.66666"
       id="path82" />
    <path
       style="fill:none;stroke:#000000;stroke-width:0.945333;stroke-linecap:round;stroke-linejoin:round;stroke-miterlimit:10;stroke-dasharray:none;stroke-opacity:1"
       d="m 681.99153,106.27385 2.93333,-0.66666 2.53333,-1.6 1.6,-2.53334 0.66667,-2.933327 -0.66667,-2.93333 -1.6,-2.53334 -2.53333,-1.73333 -2.93333,-0.53333 -3.06667,0.53333 -2.4,1.73333 -1.73333,2.53334 -0.53334,2.93333 0.53334,2.933327 1.73333,2.53334 2.4,1.6 3.06667,0.66666"
       id="path81" />
    <path
       style="fill:none;stroke:#000000;stroke-width:0.945333;stroke-linecap:round;stroke-linejoin:round;stroke-miterlimit:10;stroke-dasharray:none;stroke-opacity:1"
       d="m 681.99153,446.40718 2.93333,-0.53334 2.53333,-1.73333 1.6,-2.53333 0.66667,-2.93334 -0.66667,-2.93333 -1.6,-2.53333 -2.53333,-1.73334 -2.93333,-0.53333 -3.06667,0.53333 -2.4,1.73334 -1.73333,2.53333 -0.53334,2.93333 0.53334,2.93334 1.73333,2.53333 2.4,1.73333 3.06667,0.53334"
       id="path80" />
    <path
       style="fill:none;stroke:#000000;stroke-width:0.945333;stroke-linecap:round;stroke-linejoin:round;stroke-miterlimit:10;stroke-dasharray:none;stroke-opacity:1"
       d="m 133.85821,805.47384 3.06666,-0.53334 2.53334,-1.73333 1.6,-2.53333 0.66666,-2.93334 -0.66666,-2.93333 -1.6,-2.53333 -2.53334,-1.73334 -3.06666,-0.53333 -2.93334,0.53333 -2.53333,1.73334 -1.6,2.53333 -0.66667,2.93333 0.66667,2.93334 1.6,2.53333 2.53333,1.73333 2.93334,0.53334"
       id="path79" />
    <path
       style="fill:none;stroke:#000000;stroke-width:0.945333;stroke-linecap:round;stroke-linejoin:round;stroke-miterlimit:10;stroke-dasharray:none;stroke-opacity:1"
       d="m 1229.9916,790.00717 -2.9334,0.53333 -2.5333,1.73334 -1.7333,2.53333 -0.5334,2.93333 0.5334,2.93334 1.7333,2.53333 2.5333,1.73333 2.9334,0.53334 2.9333,-0.53334 2.5333,-1.73333 1.7334,-2.53333 0.5333,-2.93334 -0.5333,-2.93333 -1.7334,-2.53333 -2.5333,-1.73334 -2.9333,-0.53333"
       id="path78" />
    <path
       style="fill:none;stroke:#000000;stroke-width:0.945333;stroke-linecap:round;stroke-linejoin:round;stroke-miterlimit:10;stroke-dasharray:none;stroke-opacity:1"
       d="m 499.4582,334.54051 2.93333,0.53334 2.53333,1.73333 1.6,2.53333 0.66667,2.93334 -0.66667,2.93333 -1.6,2.53333 -2.53333,1.73334 -2.93333,0.53333 -3.06667,-0.53333 -2.53333,-1.73334 -1.6,-2.53333 -0.66667,-2.93333 0.66667,-2.93334 1.6,-2.53333 2.53333,-1.73333 3.06667,-0.53334"
       id="path77" />
    <path
       style="fill:none;stroke:#000000;stroke-width:0.945333;stroke-linecap:round;stroke-linejoin:round;stroke-miterlimit:10;stroke-dasharray:none;stroke-opacity:1"
       d="m 864.52486,527.34051 2.93333,0.53333 2.53333,1.73334 1.73333,2.53333 0.5333,2.93333 -0.5333,2.93334 -1.73333,2.53333 -2.53333,1.6 -2.93333,0.66667 -2.93334,-0.66667 -2.53333,-1.6 -1.73333,-2.53333 -0.53334,-2.93334 0.53334,-2.93333 1.73333,-2.53333 2.53333,-1.73334 2.93334,-0.53333"
       id="path76" />
    <path
       style="fill:none;stroke:#000000;stroke-width:0.945333;stroke-linecap:round;stroke-linejoin:round;stroke-miterlimit:10;stroke-dasharray:none;stroke-opacity:1"
       d="m 927.59155,527.34051 2.9333,0.53333 2.5333,1.73334 1.7334,2.53333 0.5333,2.93333 -0.5333,2.93334 -1.7334,2.53333 -2.5333,1.6 -2.9333,0.66667 -2.9334,-0.66667 -2.5333,-1.6 -1.6,-2.53333 -0.6667,-2.93334 0.6667,-2.93333 1.6,-2.53333 2.5333,-1.73334 2.9334,-0.53333"
       id="path75" />
    <path
       style="fill:none;stroke:#000000;stroke-width:0.945333;stroke-linecap:round;stroke-linejoin:round;stroke-miterlimit:10;stroke-dasharray:none;stroke-opacity:1"
       d="m 436.2582,334.54051 2.93333,0.53334 2.53334,1.73333 1.73333,2.53333 0.53333,2.93334 -0.53333,2.93333 -1.73333,2.53333 -2.53334,1.73334 -2.93333,0.53333 -2.93333,-0.53333 -2.53334,-1.73334 -1.73333,-2.53333 -0.53333,-2.93333 0.53333,-2.93334 1.73333,-2.53333 2.53334,-1.73333 2.93333,-0.53334"
       id="path74" />
    <path
       style="fill:none;stroke:#000000;stroke-width:0.945333;stroke-linecap:round;stroke-linejoin:round;stroke-miterlimit:10;stroke-dasharray:none;stroke-opacity:1"
       d="m 154.65821,219.60718 3.06666,-0.53333 2.4,-1.73333 1.73334,-2.53334 0.53333,-2.93333 -0.53333,-2.93333 -1.73334,-2.53334 -2.4,-1.73333 -3.06666,-0.53333 -2.93334,0.53333 -2.53333,1.73333 -1.6,2.53334 -0.66667,2.93333 0.66667,2.93333 1.6,2.53334 2.53333,1.73333 2.93334,0.53333"
       id="path73" />
    <path
       style="fill:none;stroke:#000000;stroke-width:0.945333;stroke-linecap:round;stroke-linejoin:round;stroke-miterlimit:10;stroke-dasharray:none;stroke-opacity:1"
       d="m 154.65821,657.74051 3.06666,0.53333 2.4,1.73333 1.73334,2.53334 0.53333,2.93333 -0.53333,2.93333 -1.73334,2.53334 -2.4,1.6 -3.06666,0.66666 -2.93334,-0.66666 -2.53333,-1.6 -1.6,-2.53334 -0.66667,-2.93333 0.66667,-2.93333 1.6,-2.53334 2.53333,-1.73333 2.93334,-0.53333"
       id="path72" />
    <path
       style="fill:none;stroke:#000000;stroke-width:0.945333;stroke-linecap:round;stroke-linejoin:round;stroke-miterlimit:10;stroke-dasharray:none;stroke-opacity:1"
       d="m 154.65821,312.94051 h 0.4 l 0.26666,-0.26666 0.26667,-0.26667 v -0.4 -0.26667 l -0.26667,-0.4 -0.26666,-0.13333 -0.4,-0.13333 -0.26667,0.13333 -0.4,0.13333 -0.13333,0.4 -0.13334,0.26667 0.13334,0.4 0.13333,0.26667 0.4,0.26666 h 0.26667"
       id="path71" />
    <path
       style="fill:none;stroke:#000000;stroke-width:0.945333;stroke-linecap:round;stroke-linejoin:round;stroke-miterlimit:10;stroke-dasharray:none;stroke-opacity:1"
       d="m 1209.1916,566.27384 0.4,-0.13333 0.2666,-0.13334 0.2667,-0.4 v -0.26666 -0.4 l -0.2667,-0.26667 -0.2666,-0.26667 -0.4,-0.13333 -0.4,0.13333 -0.2667,0.26667 -0.2667,0.26667 v 0.4 0.26666 l 0.2667,0.4 0.2667,0.13334 0.4,0.13333"
       id="path70" />
    <path
       style="fill:none;stroke:#000000;stroke-width:0.945333;stroke-linecap:round;stroke-linejoin:round;stroke-miterlimit:10;stroke-dasharray:none;stroke-opacity:1"
       d="m 1211.0582,126.67385 -3.3333,0.53334 -2.8,1.73333 -2.1333,2.53333 -1.2,3.2 v 3.33334 l 1.2,3.06666 2.1333,2.66667 2.8,1.6 3.3333,0.66667 3.3334,-0.66667 2.9333,-1.6 2.1333,-2.66667 1.0667,-3.06666 v -3.33334 l -1.0667,-3.2 -2.1333,-2.53333 -2.9333,-1.73333 -3.3334,-0.53334"
       id="path69" />
    <path
       style="fill:none;stroke:#000000;stroke-width:0.945333;stroke-linecap:round;stroke-linejoin:round;stroke-miterlimit:10;stroke-dasharray:none;stroke-opacity:1"
       d="m 1211.0582,750.67384 3.3334,-0.53334 2.9333,-1.73333 2.1333,-2.53333 1.0667,-3.2 v -3.33334 l -1.0667,-3.06666 -2.1333,-2.66667 -2.9333,-1.6 -3.3334,-0.66667 -3.3333,0.66667 -2.8,1.6 -2.1333,2.66667 -1.2,3.06666 v 3.33334 l 1.2,3.2 2.1333,2.53333 2.8,1.73333 3.3333,0.53334"
       id="path68" />
    <path
       style="fill:none;stroke:#000000;stroke-width:0.945333;stroke-linecap:round;stroke-linejoin:round;stroke-miterlimit:10;stroke-dasharray:none;stroke-opacity:1"
       d="m 152.79154,731.3405 -3.33333,0.66667 -2.8,1.6 -2.13334,2.66667 -1.2,3.06666 v 3.33334 l 1.2,3.2 2.13334,2.53333 2.8,1.73333 3.33333,0.53334 3.33333,-0.53334 2.93334,-1.73333 2.13333,-2.53333 1.06667,-3.2 v -3.33334 l -1.06667,-3.06666 -2.13333,-2.66667 -2.93334,-1.6 -3.33333,-0.66667"
       id="path67" />
    <path
       style="fill:none;stroke:#000000;stroke-width:0.945333;stroke-linecap:round;stroke-linejoin:round;stroke-miterlimit:10;stroke-dasharray:none;stroke-opacity:1"
       d="m 152.79154,146.00719 3.33333,-0.66667 2.93334,-1.6 2.13333,-2.66667 1.06667,-3.06666 v -3.33334 l -1.06667,-3.2 -2.13333,-2.53333 -2.93334,-1.73333 -3.33333,-0.53334 -3.33333,0.53334 -2.8,1.73333 -2.13334,2.53333 -1.2,3.2 v 3.33334 l 1.2,3.06666 2.13334,2.66667 2.8,1.6 3.33333,0.66667"
       id="path66" />
    <path
       style="fill:none;stroke:#000000;stroke-width:0.945333;stroke-linecap:round;stroke-linejoin:round;stroke-miterlimit:10;stroke-dasharray:none;stroke-opacity:1"
       d="M 1078.7916,555.87384 V 321.47385"
       id="path65" />
    <path
       style="fill:none;stroke:#000000;stroke-width:0.945333;stroke-linecap:round;stroke-linejoin:round;stroke-miterlimit:10;stroke-dasharray:none;stroke-opacity:1"
       d="m 1063.7249,570.94051 2.9333,-0.26667 2.8,-0.93333 2.6667,-1.33334 2.2667,-1.86666 1.8666,-2.26667 1.3334,-2.66667 0.9333,-2.8 0.2667,-2.93333"
       id="path64" />
    <path
       style="fill:none;stroke:#000000;stroke-width:0.945333;stroke-linecap:round;stroke-linejoin:round;stroke-miterlimit:10;stroke-dasharray:none;stroke-opacity:1"
       d="M 961.59155,570.94051 H 1063.7249"
       id="path63" />
    <path
       style="fill:none;stroke:#000000;stroke-width:0.945333;stroke-linecap:round;stroke-linejoin:round;stroke-miterlimit:10;stroke-dasharray:none;stroke-opacity:1"
       d="m 946.52485,555.87384 0.2667,2.93333 0.9333,2.8 1.3333,2.66667 1.8667,2.26667 2.2667,1.86666 2.6666,1.33334 2.8,0.93333 2.9334,0.26667"
       id="path62" />
    <path
       style="fill:none;stroke:#000000;stroke-width:0.945333;stroke-linecap:round;stroke-linejoin:round;stroke-miterlimit:10;stroke-dasharray:none;stroke-opacity:1"
       d="M 946.52485,321.47385 V 555.87384"
       id="path61" />
    <path
       style="fill:none;stroke:#000000;stroke-width:0.945333;stroke-linecap:round;stroke-linejoin:round;stroke-miterlimit:10;stroke-dasharray:none;stroke-opacity:1"
       d="m 961.59155,306.40718 -2.9334,0.26667 -2.8,0.8 -2.6666,1.46666 -2.2667,1.86667 -1.8667,2.26667 -1.3333,2.66666 -0.9333,2.8 -0.2667,2.93334"
       id="path60" />
    <path
       style="fill:none;stroke:#000000;stroke-width:0.945333;stroke-linecap:round;stroke-linejoin:round;stroke-miterlimit:10;stroke-dasharray:none;stroke-opacity:1"
       d="M 1063.7249,306.40718 H 961.59155"
       id="path59" />
    <path
       style="fill:none;stroke:#000000;stroke-width:0.945333;stroke-linecap:round;stroke-linejoin:round;stroke-miterlimit:10;stroke-dasharray:none;stroke-opacity:1"
       d="m 1078.7916,321.47385 -0.2667,-2.93334 -0.9333,-2.8 -1.3334,-2.66666 -1.8666,-2.26667 -2.2667,-1.86667 -2.6667,-1.46666 -2.8,-0.8 -2.9333,-0.26667"
       id="path58" />
    <path
       style="fill:none;stroke:#000000;stroke-width:0.945333;stroke-linecap:round;stroke-linejoin:round;stroke-miterlimit:10;stroke-dasharray:none;stroke-opacity:1"
       d="M 1229.9916,264.80718 V 612.54051"
       id="path57" />
    <path
       style="fill:none;stroke:#000000;stroke-width:0.945333;stroke-linecap:round;stroke-linejoin:round;stroke-miterlimit:10;stroke-dasharray:none;stroke-opacity:1"
       d="m 1245.0582,249.74052 -2.9333,0.26666 -2.8,0.8 -2.6667,1.46667 -2.2666,1.86667 -1.8667,2.26666 -1.3333,2.66667 -0.9334,2.8 -0.2666,2.93333"
       id="path56" />
    <path
       style="fill:none;stroke:#000000;stroke-width:0.945333;stroke-linecap:round;stroke-linejoin:round;stroke-miterlimit:10;stroke-dasharray:none;stroke-opacity:1"
       d="m 1271.5916,249.74052 h -26.5334"
       id="path55" />
    <path
       style="fill:none;stroke:#000000;stroke-width:0.945333;stroke-linecap:round;stroke-linejoin:round;stroke-miterlimit:10;stroke-dasharray:none;stroke-opacity:1"
       d="m 1286.6582,264.80718 -0.2666,-2.93333 -0.9334,-2.8 -1.3333,-2.66667 -1.8667,-2.26666 -2.2666,-1.86667 -2.6667,-1.46667 -2.8,-0.8 -2.9333,-0.26666"
       id="path54" />
    <path
       style="fill:none;stroke:#000000;stroke-width:0.945333;stroke-linecap:round;stroke-linejoin:round;stroke-miterlimit:10;stroke-dasharray:none;stroke-opacity:1"
       d="M 1286.6582,612.54051 V 264.80718"
       id="path53" />
    <path
       style="fill:none;stroke:#000000;stroke-width:0.945333;stroke-linecap:round;stroke-linejoin:round;stroke-miterlimit:10;stroke-dasharray:none;stroke-opacity:1"
       d="m 1271.5916,627.60717 2.9333,-0.26666 2.8,-0.8 2.6667,-1.46667 2.2666,-1.86667 1.8667,-2.26666 1.3333,-2.66667 0.9334,-2.8 0.2666,-2.93333"
       id="path52" />
    <path
       style="fill:none;stroke:#000000;stroke-width:0.945333;stroke-linecap:round;stroke-linejoin:round;stroke-miterlimit:10;stroke-dasharray:none;stroke-opacity:1"
       d="m 1245.0582,627.60717 h 26.5334"
       id="path51" />
    <path
       style="fill:none;stroke:#000000;stroke-width:0.945333;stroke-linecap:round;stroke-linejoin:round;stroke-miterlimit:10;stroke-dasharray:none;stroke-opacity:1"
       d="m 1229.9916,612.54051 0.2666,2.93333 0.9334,2.8 1.3333,2.66667 1.8667,2.26666 2.2666,1.86667 2.6667,1.46667 2.8,0.8 2.9333,0.26666"
       id="path50" />
    <path
       style="fill:none;stroke:#000000;stroke-width:0.945333;stroke-linecap:round;stroke-linejoin:round;stroke-miterlimit:10;stroke-dasharray:none;stroke-opacity:1"
       d="M 92.391544,627.60717 H 118.79154"
       id="path49" />
    <path
       style="fill:none;stroke:#000000;stroke-width:0.945333;stroke-linecap:round;stroke-linejoin:round;stroke-miterlimit:10;stroke-dasharray:none;stroke-opacity:1"
       d="m 77.191544,612.54051 0.26667,2.93333 0.93333,2.8 1.33333,2.66667 1.86667,2.26666 2.4,1.86667 2.53333,1.46667 2.93334,0.8 2.93333,0.26666"
       id="path48" />
    <path
       style="fill:none;stroke:#000000;stroke-width:0.945333;stroke-linecap:round;stroke-linejoin:round;stroke-miterlimit:10;stroke-dasharray:none;stroke-opacity:1"
       d="M 77.191544,264.80718 V 612.54051"
       id="path47" />
    <path
       style="fill:none;stroke:#000000;stroke-width:0.945333;stroke-linecap:round;stroke-linejoin:round;stroke-miterlimit:10;stroke-dasharray:none;stroke-opacity:1"
       d="m 92.391544,249.74052 -2.93333,0.26666 -2.93334,0.8 -2.53333,1.46667 -2.4,1.86667 -1.86667,2.26666 -1.33333,2.66667 -0.93333,2.8 -0.26667,2.93333"
       id="path46" />
    <path
       style="fill:none;stroke:#000000;stroke-width:0.945333;stroke-linecap:round;stroke-linejoin:round;stroke-miterlimit:10;stroke-dasharray:none;stroke-opacity:1"
       d="M 118.79154,249.74052 H 92.391544"
       id="path45" />
    <path
       style="fill:none;stroke:#000000;stroke-width:0.945333;stroke-linecap:round;stroke-linejoin:round;stroke-miterlimit:10;stroke-dasharray:none;stroke-opacity:1"
       d="m 133.85821,264.80718 -0.26667,-2.93333 -0.8,-2.8 -1.46667,-2.66667 -1.86666,-2.26666 -2.26667,-1.86667 -2.66667,-1.46667 -2.8,-0.8 -2.93333,-0.26666"
       id="path44" />
    <path
       style="fill:none;stroke:#000000;stroke-width:0.945333;stroke-linecap:round;stroke-linejoin:round;stroke-miterlimit:10;stroke-dasharray:none;stroke-opacity:1"
       d="M 133.85821,612.54051 V 264.80718"
       id="path43" />
    <path
       style="fill:none;stroke:#000000;stroke-width:0.945333;stroke-linecap:round;stroke-linejoin:round;stroke-miterlimit:10;stroke-dasharray:none;stroke-opacity:1"
       d="m 118.79154,627.60717 2.93333,-0.26666 2.8,-0.8 2.66667,-1.46667 2.26667,-1.86667 1.86666,-2.26666 1.46667,-2.66667 0.8,-2.8 0.26667,-2.93333"
       id="path42" />
    <path
       style="fill:none;stroke:#000000;stroke-width:0.945333;stroke-linecap:round;stroke-linejoin:round;stroke-miterlimit:10;stroke-dasharray:none;stroke-opacity:1"
       d="m 285.0582,555.87384 0.26667,2.93333 0.93333,2.8 1.33334,2.66667 2,2.26667 2.26666,1.86666 2.53334,1.33334 2.93333,0.93333 2.93333,0.26667"
       id="path41" />
    <path
       style="fill:none;stroke:#000000;stroke-width:0.945333;stroke-linecap:round;stroke-linejoin:round;stroke-miterlimit:10;stroke-dasharray:none;stroke-opacity:1"
       d="M 285.0582,321.47385 V 555.87384"
       id="path40" />
    <path
       style="fill:none;stroke:#000000;stroke-width:0.945333;stroke-linecap:round;stroke-linejoin:round;stroke-miterlimit:10;stroke-dasharray:none;stroke-opacity:1"
       d="m 300.2582,306.40718 -2.93333,0.26667 -2.93333,0.8 -2.53334,1.46666 -2.26666,1.86667 -2,2.26667 -1.33334,2.66666 -0.93333,2.8 -0.26667,2.93334"
       id="path39" />
    <path
       style="fill:none;stroke:#000000;stroke-width:0.945333;stroke-linecap:round;stroke-linejoin:round;stroke-miterlimit:10;stroke-dasharray:none;stroke-opacity:1"
       d="m 402.2582,306.40718 h -102"
       id="path38" />
    <path
       style="fill:none;stroke:#000000;stroke-width:0.945333;stroke-linecap:round;stroke-linejoin:round;stroke-miterlimit:10;stroke-dasharray:none;stroke-opacity:1"
       d="m 417.32487,321.47385 -0.26667,-2.93334 -0.8,-2.8 -1.46667,-2.66666 -1.86666,-2.26667 -2.26667,-1.86667 -2.66667,-1.46666 -2.8,-0.8 -2.93333,-0.26667"
       id="path37" />
    <path
       style="fill:none;stroke:#000000;stroke-width:0.945333;stroke-linecap:round;stroke-linejoin:round;stroke-miterlimit:10;stroke-dasharray:none;stroke-opacity:1"
       d="M 417.32487,555.87384 V 321.47385"
       id="path36" />
    <path
       style="fill:none;stroke:#000000;stroke-width:0.945333;stroke-linecap:round;stroke-linejoin:round;stroke-miterlimit:10;stroke-dasharray:none;stroke-opacity:1"
       d="m 402.2582,570.94051 2.93333,-0.26667 2.8,-0.93333 2.66667,-1.33334 2.26667,-1.86666 1.86666,-2.26667 1.46667,-2.66667 0.8,-2.8 0.26667,-2.93333"
       id="path35" />
    <path
       style="fill:none;stroke:#000000;stroke-width:0.945333;stroke-linecap:round;stroke-linejoin:round;stroke-miterlimit:10;stroke-dasharray:none;stroke-opacity:1"
       d="m 300.2582,570.94051 h 102"
       id="path34" />
    <path
       style="fill:none;stroke:#000000;stroke-width:0.945333;stroke-linecap:round;stroke-linejoin:round;stroke-miterlimit:10;stroke-dasharray:none;stroke-opacity:1"
       d="m 1135.4582,964.00719 0.1334,0.8 0.1333,0.6666 0.4,0.6667 0.5333,0.5333 0.5334,0.5334 0.6666,0.2666 0.6667,0.2667 h 0.8"
       id="path32" />
    <path
       style="fill:none;stroke:#000000;stroke-width:0.945333;stroke-linecap:round;stroke-linejoin:round;stroke-miterlimit:10;stroke-dasharray:none;stroke-opacity:1"
       d="m 224.6582,967.74049 h 0.66667 l 0.8,-0.2667 0.66667,-0.2666 0.53333,-0.5334 0.4,-0.5333 0.4,-0.6667 0.26667,-0.6666 v -0.8"
       id="path22" />
    <path
       style="fill:none;stroke:#000000;stroke-width:0.945333;stroke-linecap:round;stroke-linejoin:round;stroke-miterlimit:10;stroke-dasharray:none;stroke-opacity:1"
       d="m 154.65821,564.27384 0.4,0.13333 0.26666,0.26667 0.26667,0.26667 v 0.4 0.26666 l -0.26667,0.4 -0.26666,0.13334 -0.4,0.13333 -0.26667,-0.13333 -0.4,-0.13334 -0.13333,-0.4 -0.13334,-0.26666 0.13334,-0.4 0.13333,-0.26667 0.4,-0.26667 0.26667,-0.13333"
       id="path19" />
    <path
       style="fill:none;stroke:#000000;stroke-width:0.945333;stroke-linecap:round;stroke-linejoin:round;stroke-miterlimit:10;stroke-dasharray:none;stroke-opacity:1"
       d="m 1209.1916,311.07385 0.4,0.13333 0.2666,0.13333 0.2667,0.4 v 0.26667 0.4 l -0.2667,0.26667 -0.2666,0.26666 h -0.4 -0.4 l -0.2667,-0.26666 -0.2667,-0.26667 v -0.4 -0.26667 l 0.2667,-0.4 0.2667,-0.13333 0.4,-0.13333"
       id="path18" />
    <path
       style="fill:none;stroke:#000000;stroke-width:0.945333;stroke-linecap:round;stroke-linejoin:round;stroke-miterlimit:10;stroke-dasharray:none;stroke-opacity:1"
       d="m 1209.1916,204.14052 2.9333,0.53333 2.5333,1.73333 1.7334,2.53334 0.5333,2.93333 -0.5333,2.93333 -1.7334,2.53334 -2.5333,1.73333 -2.9333,0.53333 -2.9334,-0.53333 -2.5333,-1.73333 -1.7333,-2.53334 -0.5334,-2.93333 0.5334,-2.93333 1.7333,-2.53334 2.5333,-1.73333 2.9334,-0.53333"
       id="path17" />
    <path
       style="fill:none;stroke:#000000;stroke-width:0.945333;stroke-linecap:round;stroke-linejoin:round;stroke-miterlimit:10;stroke-dasharray:none;stroke-opacity:1"
       d="m 1209.1916,673.20717 2.9333,-0.66666 2.5333,-1.6 1.7334,-2.53334 0.5333,-2.93333 -0.5333,-2.93333 -1.7334,-2.53334 -2.5333,-1.73333 -2.9333,-0.53333 -2.9334,0.53333 -2.5333,1.73333 -1.7333,2.53334 -0.5334,2.93333 0.5334,2.93333 1.7333,2.53334 2.5333,1.6 2.9334,0.66666"
       id="path16" />
    <path
       style="fill:none;stroke:#000000;stroke-width:0.945333;stroke-linecap:round;stroke-linejoin:round;stroke-miterlimit:10;stroke-dasharray:none;stroke-opacity:1"
       d="m 927.59155,334.54051 -2.9334,0.53334 -2.5333,1.73333 -1.6,2.53333 -0.6667,2.93334 0.6667,2.93333 1.6,2.53333 2.5333,1.73334 2.9334,0.53333 2.9333,-0.53333 2.5333,-1.73334 1.7334,-2.53333 0.5333,-2.93333 -0.5333,-2.93334 -1.7334,-2.53333 -2.5333,-1.73333 -2.9333,-0.53334"
       id="path15" />
    <path
       style="fill:none;stroke:#000000;stroke-width:0.945333;stroke-linecap:round;stroke-linejoin:round;stroke-miterlimit:10;stroke-dasharray:none;stroke-opacity:1"
       d="m 864.52486,334.54051 -2.93334,0.53334 -2.53333,1.73333 -1.73333,2.53333 -0.53334,2.93334 0.53334,2.93333 1.73333,2.53333 2.53333,1.73334 2.93334,0.53333 2.93333,-0.53333 2.53333,-1.73334 1.73333,-2.53333 0.5333,-2.93333 -0.5333,-2.93334 -1.73333,-2.53333 -2.53333,-1.73333 -2.93333,-0.53334"
       id="path14" />
    <path
       style="fill:none;stroke:#000000;stroke-width:0.945333;stroke-linecap:round;stroke-linejoin:round;stroke-miterlimit:10;stroke-dasharray:none;stroke-opacity:1"
       d="m 499.4582,527.34051 -3.06667,0.53333 -2.53333,1.73334 -1.6,2.53333 -0.66667,2.93333 0.66667,2.93334 1.6,2.53333 2.53333,1.6 3.06667,0.66667 2.93333,-0.66667 2.53333,-1.6 1.6,-2.53333 0.66667,-2.93334 -0.66667,-2.93333 -1.6,-2.53333 -2.53333,-1.73334 -2.93333,-0.53333"
       id="path13" />
    <path
       style="fill:none;stroke:#000000;stroke-width:0.945333;stroke-linecap:round;stroke-linejoin:round;stroke-miterlimit:10;stroke-dasharray:none;stroke-opacity:1"
       d="m 436.2582,527.34051 -2.93333,0.53333 -2.53334,1.73334 -1.73333,2.53333 -0.53333,2.93333 0.53333,2.93334 1.73333,2.53333 2.53334,1.6 2.93333,0.66667 2.93333,-0.66667 2.53334,-1.6 1.73333,-2.53333 0.53333,-2.93334 -0.53333,-2.93333 -1.73333,-2.53333 -2.53334,-1.73334 -2.93333,-0.53333"
       id="path12" />
    <path
       style="fill:none;stroke:#000000;stroke-width:0.945333;stroke-linecap:round;stroke-linejoin:round;stroke-miterlimit:10;stroke-dasharray:none;stroke-opacity:1"
       d="m 1182.7916,939.20719 2.9333,0.6666 2.5333,1.6 1.6,2.5334 0.6667,3.0666 -0.6667,2.9334 -1.6,2.5333 -2.5333,1.6 -2.9333,0.6667 -3.0667,-0.6667 -2.4,-1.6 -1.7333,-2.5333 -0.6667,-2.9334 0.6667,-3.0666 1.7333,-2.5334 2.4,-1.6 3.0667,-0.6666"
       id="path11" />
    <path
       style="fill:none;stroke:#000000;stroke-width:0.945333;stroke-linecap:round;stroke-linejoin:round;stroke-miterlimit:10;stroke-dasharray:none;stroke-opacity:1"
       d="m 1152.5249,806.9405 2.9333,0.66667 2.5334,1.6 1.7333,2.53333 0.5333,2.93334 -0.5333,3.06666 -1.7333,2.53334 -2.5334,1.6 -2.9333,0.66666 -2.9333,-0.66666 -2.5334,-1.6 -1.7333,-2.53334 -0.5333,-3.06666 0.5333,-2.93334 1.7333,-2.53333 2.5334,-1.6 2.9333,-0.66667"
       id="path10" />
    <path
       style="fill:none;stroke:#000000;stroke-width:0.945333;stroke-linecap:round;stroke-linejoin:round;stroke-miterlimit:10;stroke-dasharray:none;stroke-opacity:1"
       d="m 1231.8582,861.7405 2.9334,0.66667 2.5333,1.6 1.7333,2.53333 0.5334,2.93333 -0.5334,3.06667 -1.7333,2.53333 -2.5333,1.6 -2.9334,0.66667 -2.9333,-0.66667 -2.5333,-1.6 -1.7334,-2.53333 -0.5333,-3.06667 0.5333,-2.93333 1.7334,-2.53333 2.5333,-1.6 2.9333,-0.66667"
       id="path9" />
    <path
       style="fill:none;stroke:#000000;stroke-width:0.945333;stroke-linecap:round;stroke-linejoin:round;stroke-miterlimit:10;stroke-dasharray:none;stroke-opacity:1"
       d="m 491.0582,104.14052 h 79.33333"
       id="path8" />
    <path
       style="fill:none;stroke:#000000;stroke-width:0.945333;stroke-linecap:round;stroke-linejoin:round;stroke-miterlimit:10;stroke-dasharray:none;stroke-opacity:1"
       d="m 491.0582,92.807193 -2.13334,0.53333 -1.86666,1.2 -1.2,1.86667 -0.4,2.13333 0.4,2.133327 1.2,1.86667 1.86666,1.2 2.13334,0.4"
       id="path7" />
    <path
       style="fill:none;stroke:#000000;stroke-width:0.945333;stroke-linecap:round;stroke-linejoin:round;stroke-miterlimit:10;stroke-dasharray:none;stroke-opacity:1"
       d="m 491.0582,92.807193 h 79.33333"
       id="path6" />
    <path
       style="fill:none;stroke:#000000;stroke-width:0.945333;stroke-linecap:round;stroke-linejoin:round;stroke-miterlimit:10;stroke-dasharray:none;stroke-opacity:1"
       d="m 570.39153,104.14052 2.26667,-0.4 1.86666,-1.2 1.2,-1.86667 0.4,-2.133327 -0.4,-2.13333 -1.2,-1.86667 -1.86666,-1.2 -2.26667,-0.53333"
       id="path5" />
    <path
       style="fill:none;stroke:#000000;stroke-width:0.945333;stroke-linecap:round;stroke-linejoin:round;stroke-miterlimit:10;stroke-dasharray:none;stroke-opacity:1"
       d="m 491.0582,293.20718 -2.13334,-0.53333 -1.86666,-1.2 -1.2,-1.86667 -0.4,-2.13333 0.4,-2.13333 1.2,-1.86667 1.86666,-1.2 2.13334,-0.4"
       id="path4" />
    <path
       style="fill:none;stroke:#000000;stroke-width:0.945333;stroke-linecap:round;stroke-linejoin:round;stroke-miterlimit:10;stroke-dasharray:none;stroke-opacity:1"
       d="m 491.0582,281.87385 h 79.33333"
       id="path3" />
    <path
       style="fill:none;stroke:#000000;stroke-width:0.945333;stroke-linecap:round;stroke-linejoin:round;stroke-miterlimit:10;stroke-dasharray:none;stroke-opacity:1"
       d="m 570.39153,281.87385 2.26667,0.4 1.86666,1.2 1.2,1.86667 0.4,2.13333 -0.4,2.13333 -1.2,1.86667 -1.86666,1.2 -2.26667,0.53333"
       id="path2" />
    <path
       style="fill:none;stroke:#000000;stroke-width:0.945333;stroke-linecap:round;stroke-linejoin:round;stroke-miterlimit:10;stroke-dasharray:none;stroke-opacity:1"
       d="m 491.0582,293.20718 h 79.33333"
       id="path1" />
  </g>
</svg>
