<?xml version="1.0" encoding="UTF-8" standalone="no"?>
<!-- Created with Inkscape (http://www.inkscape.org/) -->

<svg
   version="1.1"
   id="svg1"
   width="1179.6986"
   height="682.63165"
   viewBox="0 0 1179.6986 682.63164"
   sodipodi:docname="etage_commande_1.svg"
   inkscape:version="1.3 (0e150ed6c4, 2023-07-21)"
   xmlns:inkscape="http://www.inkscape.org/namespaces/inkscape"
   xmlns:sodipodi="http://sodipodi.sourceforge.net/DTD/sodipodi-0.dtd"
   xmlns="http://www.w3.org/2000/svg"
   xmlns:svg="http://www.w3.org/2000/svg">
  <defs
     id="defs1" />
  <sodipodi:namedview
     id="namedview1"
     pagecolor="#ffffff"
     bordercolor="#999999"
     borderopacity="1"
     inkscape:showpageshadow="2"
     inkscape:pageopacity="0"
     inkscape:pagecheckerboard="0"
     inkscape:deskcolor="#d1d1d1"
     inkscape:zoom="0.37282185"
     inkscape:cx="848.93093"
     inkscape:cy="531.08475"
     inkscape:window-width="1920"
     inkscape:window-height="1051"
     inkscape:window-x="-9"
     inkscape:window-y="-9"
     inkscape:window-maximized="1"
     inkscape:current-layer="g1">
    <inkscape:page
       x="0"
       y="0"
       inkscape:label="1"
       id="page1"
       width="1179.6986"
       height="682.63165"
       margin="0"
       bleed="0" />
  </sodipodi:namedview>
  <g
     inkscape:groupmode="layer"
     id="layer3"
     inkscape:label="calque 2"
     style="display:inline">
    <path
       style="fill:none;stroke:#000000;stroke-width:0.68;stroke-linecap:round;stroke-linejoin:round;stroke-miterlimit:10;stroke-dasharray:none;stroke-opacity:1"
       d="M 1160.1319,529.33776 V 45.471104"
       id="path202" />
    <path
       style="fill:none;stroke:#000000;stroke-width:0.68;stroke-linecap:round;stroke-linejoin:round;stroke-miterlimit:10;stroke-dasharray:none;stroke-opacity:1"
       d="m 1160.1319,45.471104 -0.4,-3.6 -1.0667,-3.6 -1.7333,-3.199999 -2.4,-2.933334 -2.8,-2.4 -3.3334,-1.733333 -3.4666,-1.066667 -3.7334,-0.266666"
       id="path201" />
    <path
       style="fill:none;stroke:#000000;stroke-width:0.68;stroke-linecap:round;stroke-linejoin:round;stroke-miterlimit:10;stroke-dasharray:none;stroke-opacity:1"
       d="M 1141.1985,26.671105 H 45.198561"
       id="path200" />
    <path
       style="fill:none;stroke:#000000;stroke-width:0.68;stroke-linecap:round;stroke-linejoin:round;stroke-miterlimit:10;stroke-dasharray:none;stroke-opacity:1"
       d="m 45.198561,26.671105 -3.733333,0.266666 -3.6,1.066667 -3.2,1.733333 -2.933334,2.4 -2.266666,2.933334 -1.733333,3.199999 -1.066667,3.6 -0.4,3.6"
       id="path199" />
    <path
       style="fill:none;stroke:#000000;stroke-width:0.68;stroke-linecap:round;stroke-linejoin:round;stroke-miterlimit:10;stroke-dasharray:none;stroke-opacity:1"
       d="M 26.265228,45.471104 V 529.33776"
       id="path198" />
    <path
       style="fill:none;stroke:#000000;stroke-width:0.68;stroke-linecap:round;stroke-linejoin:round;stroke-miterlimit:10;stroke-dasharray:none;stroke-opacity:1"
       d="m 26.265228,529.33776 0.4,3.6 1.066667,3.6 1.733333,3.2 2.266666,2.93333 2.933334,2.26667 3.2,1.86667 3.6,1.06666 3.733333,0.26667"
       id="path197" />
    <path
       style="fill:none;stroke:#000000;stroke-width:0.68;stroke-linecap:round;stroke-linejoin:round;stroke-miterlimit:10;stroke-dasharray:none;stroke-opacity:1"
       d="M 45.198561,548.13776 H 120.66523"
       id="path196" />
    <path
       style="fill:none;stroke:#000000;stroke-width:0.68;stroke-linecap:round;stroke-linejoin:round;stroke-miterlimit:10;stroke-dasharray:none;stroke-opacity:1"
       d="m 120.66523,548.13776 3.73333,0.4 3.6,1.06667 3.2,1.73333 2.93333,2.4 2.26667,2.8 1.73333,3.33333 1.06667,3.46667 0.4,3.73333"
       id="path195" />
    <path
       style="fill:none;stroke:#000000;stroke-width:0.68;stroke-linecap:round;stroke-linejoin:round;stroke-miterlimit:10;stroke-dasharray:none;stroke-opacity:1"
       d="m 139.59856,567.07109 v 75.6"
       id="path194" />
    <path
       style="fill:none;stroke:#000000;stroke-width:0.68;stroke-linecap:round;stroke-linejoin:round;stroke-miterlimit:10;stroke-dasharray:none;stroke-opacity:1"
       d="m 139.59856,642.67109 0.4,3.73333 1.06667,3.46667 1.73333,3.33333 2.4,2.8 2.8,2.4 3.33333,1.73334 3.46667,1.06666 3.73333,0.4"
       id="path193" />
    <path
       style="fill:none;stroke:#000000;stroke-width:0.68;stroke-linecap:round;stroke-linejoin:round;stroke-miterlimit:10;stroke-dasharray:none;stroke-opacity:1"
       d="M 158.53189,661.60442 H 1027.8652"
       id="path192" />
    <path
       style="fill:none;stroke:#000000;stroke-width:0.68;stroke-linecap:round;stroke-linejoin:round;stroke-miterlimit:10;stroke-dasharray:none;stroke-opacity:1"
       d="m 1027.8652,661.60442 3.6,-0.4 3.6,-1.06666 3.2,-1.73334 2.9333,-2.4 2.2667,-2.8 1.8667,-3.33333 1.0666,-3.46667 0.2667,-3.73333"
       id="path191" />
    <path
       style="fill:none;stroke:#000000;stroke-width:0.68;stroke-linecap:round;stroke-linejoin:round;stroke-miterlimit:10;stroke-dasharray:none;stroke-opacity:1"
       d="m 1046.6652,642.67109 v -75.6"
       id="path190" />
    <path
       style="fill:none;stroke:#000000;stroke-width:0.68;stroke-linecap:round;stroke-linejoin:round;stroke-miterlimit:10;stroke-dasharray:none;stroke-opacity:1"
       d="m 1046.6652,567.07109 0.4,-3.73333 1.0667,-3.46667 1.7333,-3.33333 2.4,-2.8 2.8,-2.4 3.3333,-1.73333 3.4667,-1.06667 3.7333,-0.4"
       id="path189" />
    <path
       style="fill:none;stroke:#000000;stroke-width:0.68;stroke-linecap:round;stroke-linejoin:round;stroke-miterlimit:10;stroke-dasharray:none;stroke-opacity:1"
       d="m 1065.5985,548.13776 h 75.6"
       id="path188" />
    <path
       style="fill:none;stroke:#000000;stroke-width:0.68;stroke-linecap:round;stroke-linejoin:round;stroke-miterlimit:10;stroke-dasharray:none;stroke-opacity:1"
       d="m 1141.1985,548.13776 3.7334,-0.26667 3.4666,-1.06666 3.3334,-1.86667 2.8,-2.26667 2.4,-2.93333 1.7333,-3.2 1.0667,-3.6 0.4,-3.6"
       id="path187" />
  </g>
  <g
     id="g1"
     inkscape:groupmode="layer"
     inkscape:label="1">
    <path
       style="fill:none;stroke:#000000;stroke-width:0.68;stroke-linecap:round;stroke-linejoin:round;stroke-miterlimit:10;stroke-dasharray:none;stroke-opacity:1"
       d="m 971.0652,315.73776 2.26667,-0.4 1.73333,-1.2 1.33334,-1.86666 0.4,-2.13334 -0.4,-2.26666 -1.33334,-1.86667 -1.73333,-1.2 -2.26667,-0.4 -2.13333,0.4 -1.86667,1.2 -1.2,1.86667 -0.4,2.26666 0.4,2.13334 1.2,1.86666 1.86667,1.2 2.13333,0.4"
       id="path244" />
    <path
       style="fill:none;stroke:#000000;stroke-width:0.68;stroke-linecap:round;stroke-linejoin:round;stroke-miterlimit:10;stroke-dasharray:none;stroke-opacity:1"
       d="m 215.19856,270.40443 2.13333,-0.4 1.86667,-1.33333 1.2,-1.73333 0.53333,-2.26667 -0.53333,-2.13333 -1.2,-1.86667 -1.86667,-1.2 -2.13333,-0.4 -2.13334,0.4 -1.86666,1.2 -1.2,1.86667 -0.4,2.13333 0.4,2.26667 1.2,1.73333 1.86666,1.33333 2.13334,0.4"
       id="path243" />
    <path
       style="fill:none;stroke:#000000;stroke-width:0.68;stroke-linecap:round;stroke-linejoin:round;stroke-miterlimit:10;stroke-dasharray:none;stroke-opacity:1"
       d="m 277.59855,597.33776 2.13334,-0.4 1.86666,-1.33334 1.2,-1.73333 0.4,-2.26667 -0.4,-2.13333 -1.2,-1.86667 -1.86666,-1.2 -2.13334,-0.4 -2.13333,0.4 -1.86666,1.2 -1.2,1.86667 -0.53334,2.13333 0.53334,2.26667 1.2,1.73333 1.86666,1.33334 2.13333,0.4"
       id="path242" />
    <path
       style="fill:none;stroke:#000000;stroke-width:0.68;stroke-linecap:round;stroke-linejoin:round;stroke-miterlimit:10;stroke-dasharray:none;stroke-opacity:1"
       d="m 564.79855,247.73777 2.13333,-0.4 1.86667,-1.33334 1.2,-1.73333 0.53333,-2.26667 -0.53333,-2.13333 -1.2,-1.86667 -1.86667,-1.2 -2.13333,-0.4 -2.13334,0.4 -1.86666,1.2 -1.2,1.86667 -0.4,2.13333 0.4,2.26667 1.2,1.73333 1.86666,1.33334 2.13334,0.4"
       id="path241" />
    <path
       style="fill:none;stroke:#000000;stroke-width:0.68;stroke-linecap:round;stroke-linejoin:round;stroke-miterlimit:10;stroke-dasharray:none;stroke-opacity:1"
       d="m 564.79855,372.40443 2.13333,-0.4 1.86667,-1.2 1.2,-1.86667 0.53333,-2.13333 -0.53333,-2.26667 -1.2,-1.73333 -1.86667,-1.33333 -2.13333,-0.4 -2.13334,0.4 -1.86666,1.33333 -1.2,1.73333 -0.4,2.26667 0.4,2.13333 1.2,1.86667 1.86666,1.2 2.13334,0.4"
       id="path240" />
    <path
       style="fill:none;stroke:#000000;stroke-width:0.68;stroke-linecap:round;stroke-linejoin:round;stroke-miterlimit:10;stroke-dasharray:none;stroke-opacity:1"
       d="m 564.79855,621.87109 2.13333,-0.4 1.86667,-1.2 1.2,-1.86667 0.53333,-2.13333 -0.53333,-2.26667 -1.2,-1.73333 -1.86667,-1.33333 -2.13333,-0.4 -2.13334,0.4 -1.86666,1.33333 -1.2,1.73333 -0.4,2.26667 0.4,2.13333 1.2,1.86667 1.86666,1.2 2.13334,0.4"
       id="path239" />
    <path
       style="fill:none;stroke:#000000;stroke-width:0.68;stroke-linecap:round;stroke-linejoin:round;stroke-miterlimit:10;stroke-dasharray:none;stroke-opacity:1"
       d="m 564.79855,497.20443 2.13333,-0.53334 1.86667,-1.2 1.2,-1.86666 0.53333,-2.13334 -0.53333,-2.13333 -1.2,-1.86667 -1.86667,-1.2 -2.13333,-0.4 -2.13334,0.4 -1.86666,1.2 -1.2,1.86667 -0.4,2.13333 0.4,2.13334 1.2,1.86666 1.86666,1.2 2.13334,0.53334"
       id="path238" />
    <path
       style="fill:none;stroke:#000000;stroke-width:0.68;stroke-linecap:round;stroke-linejoin:round;stroke-miterlimit:10;stroke-dasharray:none;stroke-opacity:1"
       d="m 763.19854,315.73776 2.26667,-0.4 1.73333,-1.2 1.33334,-1.86666 0.4,-2.13334 -0.4,-2.26666 -1.33334,-1.86667 -1.73333,-1.2 -2.26667,-0.4 -2.13333,0.4 -1.86667,1.2 -1.2,1.86667 -0.4,2.26666 0.4,2.13334 1.2,1.86666 1.86667,1.2 2.13333,0.4"
       id="path237" />
    <path
       style="fill:none;stroke:#000000;stroke-width:0.68;stroke-linecap:round;stroke-linejoin:round;stroke-miterlimit:10;stroke-dasharray:none;stroke-opacity:1"
       d="m 423.06522,270.40443 2.13333,-0.4 1.86667,-1.33333 1.2,-1.73333 0.53333,-2.26667 -0.53333,-2.13333 -1.2,-1.86667 -1.86667,-1.2 -2.13333,-0.4 -2.13334,0.4 -1.86666,1.2 -1.2,1.86667 -0.4,2.13333 0.4,2.26667 1.2,1.73333 1.86666,1.33333 2.13334,0.4"
       id="path236" />
    <path
       style="fill:none;stroke:#000000;stroke-width:0.68;stroke-linecap:round;stroke-linejoin:round;stroke-miterlimit:10;stroke-dasharray:none;stroke-opacity:1"
       d="m 564.79855,122.93777 2.13333,-0.4 1.86667,-1.2 1.2,-1.86667 0.53333,-2.13333 -0.53333,-2.13333 -1.2,-1.86667 -1.86667,-1.2 -2.13333,-0.53333 -2.13334,0.53333 -1.86666,1.2 -1.2,1.86667 -0.4,2.13333 0.4,2.13333 1.2,1.86667 1.86666,1.2 2.13334,0.4"
       id="path235" />
    <path
       style="fill:none;stroke:#000000;stroke-width:0.68;stroke-linecap:round;stroke-linejoin:round;stroke-miterlimit:10;stroke-dasharray:none;stroke-opacity:1"
       d="m 432.53188,411.0711 -0.4,-2.93334 -1.33333,-2.66666 -2.13333,-2.13334 -2.66667,-1.33333 -2.93333,-0.4 -2.93334,0.4 -2.53333,1.33333 -2.13333,2.13334 -1.33334,2.66666 -0.53333,2.93334"
       id="path234" />
    <path
       style="fill:none;stroke:#000000;stroke-width:0.68;stroke-linecap:round;stroke-linejoin:round;stroke-miterlimit:10;stroke-dasharray:none;stroke-opacity:1"
       d="M 432.53188,448.80443 V 411.0711"
       id="path233" />
    <path
       style="fill:none;stroke:#000000;stroke-width:0.68;stroke-linecap:round;stroke-linejoin:round;stroke-miterlimit:10;stroke-dasharray:none;stroke-opacity:1"
       d="m 413.59855,448.80443 0.53333,2.93333 1.33334,2.66667 2.13333,2 2.53333,1.33333 2.93334,0.53333 2.93333,-0.53333 2.66667,-1.33333 2.13333,-2 1.33333,-2.66667 0.4,-2.93333"
       id="path232" />
    <path
       style="fill:none;stroke:#000000;stroke-width:0.68;stroke-linecap:round;stroke-linejoin:round;stroke-miterlimit:10;stroke-dasharray:none;stroke-opacity:1"
       d="m 413.59855,411.0711 v 37.73333"
       id="path231" />
    <path
       style="fill:none;stroke:#000000;stroke-width:0.68;stroke-linecap:round;stroke-linejoin:round;stroke-miterlimit:10;stroke-dasharray:none;stroke-opacity:1"
       d="m 499.59855,506.80443 2.26667,-0.4 1.86666,-1.33334 1.33334,-1.86666 0.4,-2.26667 -0.4,-2.26667 -1.33334,-1.86666 -1.86666,-1.33334 -2.26667,-0.4 -2.26667,0.4 -1.86666,1.33334 -1.2,1.86666 -0.53334,2.26667 0.53334,2.26667 1.2,1.86666 1.86666,1.33334 2.26667,0.4"
       id="path230" />
    <path
       style="fill:none;stroke:#000000;stroke-width:0.68;stroke-linecap:round;stroke-linejoin:round;stroke-miterlimit:10;stroke-dasharray:none;stroke-opacity:1"
       d="m 686.66521,506.80443 2.26667,-0.4 1.86666,-1.33334 1.33334,-1.86666 0.4,-2.26667 -0.4,-2.26667 -1.33334,-1.86666 -1.86666,-1.33334 -2.26667,-0.4 -2.13333,0.4 -2,1.33334 -1.2,1.86666 -0.53334,2.26667 0.53334,2.26667 1.2,1.86666 2,1.33334 2.13333,0.4"
       id="path229" />
    <path
       style="fill:none;stroke:#000000;stroke-width:0.68;stroke-linecap:round;stroke-linejoin:round;stroke-miterlimit:10;stroke-dasharray:none;stroke-opacity:1"
       d="m 801.99854,338.6711 2.26667,-0.53334 1.86667,-1.2 1.2,-2 0.53333,-2.13333 -0.53333,-2.26667 -1.2,-1.86666 -1.86667,-1.33334 -2.26667,-0.4 -2.26666,0.4 -1.86667,1.33334 -1.33333,1.86666 -0.4,2.26667 0.4,2.13333 1.33333,2 1.86667,1.2 2.26666,0.53334"
       id="path228" />
    <path
       style="fill:none;stroke:#000000;stroke-width:0.68;stroke-linecap:round;stroke-linejoin:round;stroke-miterlimit:10;stroke-dasharray:none;stroke-opacity:1"
       d="m 801.99854,96.671103 2.26667,-0.4 1.86667,-1.333333 1.2,-1.866667 0.53333,-2.266667 -0.53333,-2.133333 -1.2,-2 -1.86667,-1.2 -2.26667,-0.533333 -2.26666,0.533333 -1.86667,1.2 -1.33333,2 -0.4,2.133333 0.4,2.266667 1.33333,1.866667 1.86667,1.333333 2.26666,0.4"
       id="path227" />
    <path
       style="fill:none;stroke:#000000;stroke-width:0.68;stroke-linecap:round;stroke-linejoin:round;stroke-miterlimit:10;stroke-dasharray:none;stroke-opacity:1"
       d="m 384.39855,338.6711 2.13334,-0.53334 2,-1.2 1.2,-2 0.53333,-2.13333 -0.53333,-2.26667 -1.2,-1.86666 -2,-1.33334 -2.13334,-0.4 -2.26666,0.4 -1.86667,1.33334 -1.33333,1.86666 -0.4,2.26667 0.4,2.13333 1.33333,2 1.86667,1.2 2.26666,0.53334"
       id="path226" />
    <path
       style="fill:none;stroke:#000000;stroke-width:0.68;stroke-linecap:round;stroke-linejoin:round;stroke-miterlimit:10;stroke-dasharray:none;stroke-opacity:1"
       d="m 384.39855,96.671103 2.13334,-0.4 2,-1.333333 1.2,-1.866667 0.53333,-2.266667 -0.53333,-2.133333 -1.2,-2 -2,-1.2 -2.13334,-0.533333 -2.26666,0.533333 -1.86667,1.2 -1.33333,2 -0.4,2.133333 0.4,2.266667 1.33333,1.866667 1.86667,1.333333 2.26666,0.4"
       id="path225" />
    <path
       style="fill:none;stroke:#000000;stroke-width:0.68;stroke-linecap:round;stroke-linejoin:round;stroke-miterlimit:10;stroke-dasharray:none;stroke-opacity:1"
       d="m 755.73188,637.20442 2.13333,-0.4 2,-1.33333 1.2,-1.86667 0.53333,-2.26666 -0.53333,-2.26667 -1.2,-1.86667 -2,-1.33333 -2.13333,-0.4 -2.26667,0.4 -1.86667,1.33333 -1.33333,1.86667 -0.4,2.26667 0.4,2.26666 1.33333,1.86667 1.86667,1.33333 2.26667,0.4"
       id="path224" />
    <path
       style="fill:none;stroke:#000000;stroke-width:0.68;stroke-linecap:round;stroke-linejoin:round;stroke-miterlimit:10;stroke-dasharray:none;stroke-opacity:1"
       d="m 895.46521,637.20442 2.26666,-0.4 2,-1.33333 1.2,-1.86667 0.4,-2.26666 -0.4,-2.26667 -1.2,-1.86667 -2,-1.33333 -2.26666,-0.4 -2.13334,0.4 -2,1.33333 -1.2,1.86667 -0.4,2.26667 0.4,2.26666 1.2,1.86667 2,1.33333 2.13334,0.4"
       id="path223" />
    <path
       style="fill:none;stroke:#000000;stroke-width:0.68;stroke-linecap:round;stroke-linejoin:round;stroke-miterlimit:10;stroke-dasharray:none;stroke-opacity:1"
       d="m 895.46521,497.33776 2.26666,-0.4 2,-1.33333 1.2,-1.86667 0.4,-2.26667 -0.4,-2.26666 -1.2,-1.86667 -2,-1.2 -2.26666,-0.53333 -2.13334,0.53333 -2,1.2 -1.2,1.86667 -0.4,2.26666 0.4,2.26667 1.2,1.86667 2,1.33333 2.13334,0.4"
       id="path222" />
    <path
       style="fill:none;stroke:#000000;stroke-width:0.68;stroke-linecap:round;stroke-linejoin:round;stroke-miterlimit:10;stroke-dasharray:none;stroke-opacity:1"
       d="m 755.73188,497.33776 2.13333,-0.4 2,-1.33333 1.2,-1.86667 0.53333,-2.26667 -0.53333,-2.26666 -1.2,-1.86667 -2,-1.2 -2.13333,-0.53333 -2.26667,0.53333 -1.86667,1.2 -1.33333,1.86667 -0.4,2.26666 0.4,2.26667 1.33333,1.86667 1.86667,1.33333 2.26667,0.4"
       id="path221" />
    <path
       style="fill:none;stroke:#000000;stroke-width:0.68;stroke-linecap:round;stroke-linejoin:round;stroke-miterlimit:10;stroke-dasharray:none;stroke-opacity:1"
       d="m 924.26521,204.6711 2.26666,-0.4 2,-1.33333 1.2,-1.86667 0.4,-2.26667 -0.4,-2.26666 -1.2,-1.86667 -2,-1.33333 -2.26666,-0.4 -2.13334,0.4 -2,1.33333 -1.2,1.86667 -0.4,2.26666 0.4,2.26667 1.2,1.86667 2,1.33333 2.13334,0.4"
       id="path220" />
    <path
       style="fill:none;stroke:#000000;stroke-width:0.68;stroke-linecap:round;stroke-linejoin:round;stroke-miterlimit:10;stroke-dasharray:none;stroke-opacity:1"
       d="m 905.06521,89.471103 2.26666,-0.4 2,-1.333333 1.2,-1.866667 0.4,-2.266666 -0.4,-2.266667 -1.2,-1.866667 -2,-1.333333 -2.26666,-0.4 -2.13334,0.4 -2,1.333333 -1.2,1.866667 -0.4,2.266667 0.4,2.266666 1.2,1.866667 2,1.333333 2.13334,0.4"
       id="path219" />
    <path
       style="fill:none;stroke:#000000;stroke-width:0.68;stroke-linecap:round;stroke-linejoin:round;stroke-miterlimit:10;stroke-dasharray:none;stroke-opacity:1"
       d="m 1087.4652,113.4711 2.2667,-0.4 2,-1.33333 1.2,-1.86667 0.4,-2.26666 -0.4,-2.26667 -1.2,-1.86667 -2,-1.33333 -2.2667,-0.4 -2.1333,0.4 -2,1.33333 -1.2,1.86667 -0.4,2.26667 0.4,2.26666 1.2,1.86667 2,1.33333 2.1333,0.4"
       id="path218" />
    <path
       style="fill:none;stroke:#000000;stroke-width:0.68;stroke-linecap:round;stroke-linejoin:round;stroke-miterlimit:10;stroke-dasharray:none;stroke-opacity:1"
       d="m 935.19854,570.80442 2.93333,-0.4 2.66667,-1.33333 2,-2.13333 1.46666,-2.66667 0.4,-2.8 -0.4,-2.93333 -1.46666,-2.66667 -2,-2.13333 -2.66667,-1.33334 -2.93333,-0.4 -2.93333,0.4 -2.66667,1.33334 -2,2.13333 -1.33333,2.66667 -0.53334,2.93333 0.53334,2.8 1.33333,2.66667 2,2.13333 2.66667,1.33333 2.93333,0.4"
       id="path217" />
    <path
       style="fill:none;stroke:#000000;stroke-width:0.68;stroke-linecap:round;stroke-linejoin:round;stroke-miterlimit:10;stroke-dasharray:none;stroke-opacity:1"
       d="m 715.99854,570.80442 2.93334,-0.4 2.66666,-1.33333 2,-2.13333 1.33334,-2.66667 0.53333,-2.8 -0.53333,-2.93333 -1.33334,-2.66667 -2,-2.13333 -2.66666,-1.33334 -2.93334,-0.4 -2.93333,0.4 -2.66667,1.33334 -2,2.13333 -1.33333,2.66667 -0.53333,2.93333 0.53333,2.8 1.33333,2.66667 2,2.13333 2.66667,1.33333 2.93333,0.4"
       id="path216" />
    <path
       style="fill:none;stroke:#000000;stroke-width:0.68;stroke-linecap:round;stroke-linejoin:round;stroke-miterlimit:10;stroke-dasharray:none;stroke-opacity:1"
       d="m 200.13189,535.20443 2.26667,-0.53334 1.86666,-1.2 1.2,-2 0.53334,-2.13333 -0.53334,-2.26667 -1.2,-1.86666 -1.86666,-1.33334 -2.26667,-0.4 -2.26667,0.4 -1.86666,1.33334 -1.33334,1.86666 -0.4,2.26667 0.4,2.13333 1.33334,2 1.86666,1.2 2.26667,0.53334"
       id="path215" />
    <path
       style="fill:none;stroke:#000000;stroke-width:0.68;stroke-linecap:round;stroke-linejoin:round;stroke-miterlimit:10;stroke-dasharray:none;stroke-opacity:1"
       d="m 411.73188,535.20443 2.26667,-0.53334 1.86667,-1.2 1.33333,-2 0.4,-2.13333 -0.4,-2.26667 -1.33333,-1.86666 -1.86667,-1.33334 -2.26667,-0.4 -2.26666,0.4 -1.86667,1.33334 -1.2,1.86666 -0.53333,2.26667 0.53333,2.13333 1.2,2 1.86667,1.2 2.26666,0.53334"
       id="path214" />
    <path
       style="fill:none;stroke:#000000;stroke-width:0.68;stroke-linecap:round;stroke-linejoin:round;stroke-miterlimit:10;stroke-dasharray:none;stroke-opacity:1"
       d="m 200.13189,606.93776 2.26667,-0.4 1.86666,-1.33334 1.2,-1.86666 0.53334,-2.26667 -0.53334,-2.26667 -1.2,-1.86666 -1.86666,-1.2 -2.26667,-0.53334 -2.26667,0.53334 -1.86666,1.2 -1.33334,1.86666 -0.4,2.26667 0.4,2.26667 1.33334,1.86666 1.86666,1.33334 2.26667,0.4"
       id="path213" />
    <path
       style="fill:none;stroke:#000000;stroke-width:0.68;stroke-linecap:round;stroke-linejoin:round;stroke-miterlimit:10;stroke-dasharray:none;stroke-opacity:1"
       d="m 411.73188,606.93776 2.26667,-0.4 1.86667,-1.33334 1.33333,-1.86666 0.4,-2.26667 -0.4,-2.26667 -1.33333,-1.86666 -1.86667,-1.2 -2.26667,-0.53334 -2.26666,0.53334 -1.86667,1.2 -1.2,1.86666 -0.53333,2.26667 0.53333,2.26667 1.2,1.86666 1.86667,1.33334 2.26666,0.4"
       id="path212" />
    <path
       style="fill:none;stroke:#000000;stroke-width:0.68;stroke-linecap:round;stroke-linejoin:round;stroke-miterlimit:10;stroke-dasharray:none;stroke-opacity:1"
       d="m 277.59855,102.40444 2.26667,-0.4 1.86667,-1.33334 1.2,-1.866664 0.53333,-2.266666 -0.53333,-2.266667 -1.2,-1.866667 -1.86667,-1.333333 -2.26667,-0.4 -2.26666,0.4 -1.86667,1.333333 -1.33333,1.866667 -0.4,2.266667 0.4,2.266666 1.33333,1.866664 1.86667,1.33334 2.26666,0.4"
       id="path211" />
    <path
       style="fill:none;stroke:#000000;stroke-width:0.68;stroke-linecap:round;stroke-linejoin:round;stroke-miterlimit:10;stroke-dasharray:none;stroke-opacity:1"
       d="m 1087.4652,396.6711 2.2667,-0.4 2,-1.33334 1.2,-1.86666 0.4,-2.26667 -0.4,-2.26667 -1.2,-1.86666 -2,-1.33334 -2.2667,-0.4 -2.1333,0.4 -2,1.33334 -1.2,1.86666 -0.4,2.26667 0.4,2.26667 1.2,1.86666 2,1.33334 2.1333,0.4"
       id="path210" />
    <path
       style="fill:none;stroke:#000000;stroke-width:0.68;stroke-linecap:round;stroke-linejoin:round;stroke-miterlimit:10;stroke-dasharray:none;stroke-opacity:1"
       d="m 277.59855,321.60443 2.26667,-0.4 1.86667,-1.33333 1.2,-1.86667 0.53333,-2.26667 -0.53333,-2.26666 -1.2,-1.86667 -1.86667,-1.33333 -2.26667,-0.4 -2.26666,0.4 -1.86667,1.33333 -1.33333,1.86667 -0.4,2.26666 0.4,2.26667 1.33333,1.86667 1.86667,1.33333 2.26666,0.4"
       id="path209" />
    <path
       style="fill:none;stroke:#000000;stroke-width:0.68;stroke-linecap:round;stroke-linejoin:round;stroke-miterlimit:10;stroke-dasharray:none;stroke-opacity:1"
       d="m 905.06521,401.4711 2.26666,-0.4 2,-1.33334 1.2,-1.86666 0.4,-2.26667 -0.4,-2.26667 -1.2,-1.86666 -2,-1.33334 -2.26666,-0.4 -2.13334,0.4 -2,1.33334 -1.2,1.86666 -0.4,2.26667 0.4,2.26667 1.2,1.86666 2,1.33334 2.13334,0.4"
       id="path208" />
    <path
       style="fill:none;stroke:#000000;stroke-width:0.68;stroke-linecap:round;stroke-linejoin:round;stroke-miterlimit:10;stroke-dasharray:none;stroke-opacity:1"
       d="m 92.39856,321.60443 2.266666,-0.4 1.866667,-1.33333 1.2,-1.86667 0.533333,-2.26667 -0.533333,-2.26666 -1.2,-1.86667 -1.866667,-1.33333 -2.266666,-0.4 -2.266667,0.4 -1.866667,1.33333 -1.333333,1.86667 -0.4,2.26666 0.4,2.26667 1.333333,1.86667 1.866667,1.33333 2.266667,0.4"
       id="path207" />
    <path
       style="fill:none;stroke:#000000;stroke-width:0.68;stroke-linecap:round;stroke-linejoin:round;stroke-miterlimit:10;stroke-dasharray:none;stroke-opacity:1"
       d="m 381.46522,648.40442 2.93333,-0.53333 2.66667,-1.33333 2.13333,-2.13334 1.33334,-2.53333 0.4,-2.93333 -0.4,-2.93334 -1.33334,-2.66666 -2.13333,-2.13334 -2.66667,-1.33333 -2.93333,-0.4"
       id="path206" />
    <path
       style="fill:none;stroke:#000000;stroke-width:0.68;stroke-linecap:round;stroke-linejoin:round;stroke-miterlimit:10;stroke-dasharray:none;stroke-opacity:1"
       d="M 230.39856,648.40442 H 381.46522"
       id="path205" />
    <path
       style="fill:none;stroke:#000000;stroke-width:0.68;stroke-linecap:round;stroke-linejoin:round;stroke-miterlimit:10;stroke-dasharray:none;stroke-opacity:1"
       d="m 230.39856,629.47109 -2.93334,0.4 -2.66666,1.33333 -2.13334,2.13334 -1.33333,2.66666 -0.4,2.93334 0.4,2.93333 1.33333,2.53333 2.13334,2.13334 2.66666,1.33333 2.93334,0.53333"
       id="path204" />
    <path
       style="fill:none;stroke:#000000;stroke-width:0.68;stroke-linecap:round;stroke-linejoin:round;stroke-miterlimit:10;stroke-dasharray:none;stroke-opacity:1"
       d="M 381.46522,629.47109 H 230.39856"
       id="path203" />
    <path
       style="fill:none;stroke:#000000;stroke-width:0.68;stroke-linecap:round;stroke-linejoin:round;stroke-miterlimit:10;stroke-dasharray:none;stroke-opacity:1"
       d="m 63.99856,72.13777 2.666667,-0.4 2.4,-1.333333 1.733333,-2.133333 0.8,-2.533334 v -2.666666 l -0.8,-2.533333 -1.733333,-2.133334 -2.4,-1.333333 -2.666667,-0.4 -2.666666,0.4 -2.266667,1.333333 -1.733333,2.133334 -0.933333,2.533333 v 2.666666 l 0.933333,2.533334 1.733333,2.133333 2.266667,1.333333 2.666666,0.4"
       id="path186" />
    <path
       style="fill:none;stroke:#000000;stroke-width:0.68;stroke-linecap:round;stroke-linejoin:round;stroke-miterlimit:10;stroke-dasharray:none;stroke-opacity:1"
       d="m 1122.2652,56.671104 -2.6667,0.4 -2.2666,1.333333 -1.7334,2.133334 -0.9333,2.533333 v 2.666666 l 0.9333,2.533334 1.7334,2.133333 2.2666,1.333333 2.6667,0.4 2.6667,-0.4 2.4,-1.333333 1.7333,-2.133333 0.8,-2.533334 v -2.666666 l -0.8,-2.533333 -1.7333,-2.133334 -2.4,-1.333333 -2.6667,-0.4"
       id="path185" />
    <path
       style="fill:none;stroke:#000000;stroke-width:0.68;stroke-linecap:round;stroke-linejoin:round;stroke-miterlimit:10;stroke-dasharray:none;stroke-opacity:1"
       d="m 1122.2652,518.13776 2.6667,-0.53333 2.4,-1.33334 1.7333,-2 0.8,-2.53333 v -2.66667 l -0.8,-2.53333 -1.7333,-2.13333 -2.4,-1.33334 -2.6667,-0.4 -2.6667,0.4 -2.2666,1.33334 -1.7334,2.13333 -0.9333,2.53333 v 2.66667 l 0.9333,2.53333 1.7334,2 2.2666,1.33334 2.6667,0.53333"
       id="path184" />
    <path
       style="fill:none;stroke:#000000;stroke-width:0.68;stroke-linecap:round;stroke-linejoin:round;stroke-miterlimit:10;stroke-dasharray:none;stroke-opacity:1"
       d="m 63.99856,502.67109 -2.666666,0.4 -2.266667,1.33334 -1.733333,2.13333 -0.933333,2.53333 v 2.66667 l 0.933333,2.53333 1.733333,2 2.266667,1.33334 2.666666,0.53333 2.666667,-0.53333 2.4,-1.33334 1.733333,-2 0.8,-2.53333 v -2.66667 l -0.8,-2.53333 -1.733333,-2.13333 -2.4,-1.33334 -2.666667,-0.4"
       id="path183" />
    <path
       style="fill:none;stroke:#000000;stroke-width:0.68;stroke-linecap:round;stroke-linejoin:round;stroke-miterlimit:10;stroke-dasharray:none;stroke-opacity:1"
       d="m 92.39856,102.40444 2.266666,-0.4 1.866667,-1.33334 1.2,-1.866664 0.533333,-2.266666 -0.533333,-2.266667 -1.2,-1.866667 -1.866667,-1.333333 -2.266666,-0.4 -2.266667,0.4 -1.866667,1.333333 -1.333333,1.866667 -0.4,2.266667 0.4,2.266666 1.333333,1.866664 1.866667,1.33334 2.266667,0.4"
       id="path182" />
    <path
       style="fill:none;stroke:#000000;stroke-width:0.68;stroke-linecap:round;stroke-linejoin:round;stroke-miterlimit:10;stroke-dasharray:none;stroke-opacity:1"
       d="m 574.26521,36.004438 -2.93333,0.533333 -2.66667,1.333333 -2,2.133334 -1.33333,2.533333 -0.53333,2.933333 0.53333,2.933334 1.33333,2.666666 2,2.133333 2.66667,1.333334 2.93333,0.4"
       id="path181" />
    <path
       style="fill:none;stroke:#000000;stroke-width:0.68;stroke-linecap:round;stroke-linejoin:round;stroke-miterlimit:10;stroke-dasharray:none;stroke-opacity:1"
       d="M 611.99855,36.004438 H 574.26521"
       id="path180" />
    <path
       style="fill:none;stroke:#000000;stroke-width:0.68;stroke-linecap:round;stroke-linejoin:round;stroke-miterlimit:10;stroke-dasharray:none;stroke-opacity:1"
       d="m 611.99855,54.937771 2.93333,-0.4 2.66667,-1.333334 2.13333,-2.133333 1.33333,-2.666666 0.4,-2.933334 -0.4,-2.933333 -1.33333,-2.533333 -2.13333,-2.133334 -2.66667,-1.333333 -2.93333,-0.533333"
       id="path179" />
    <path
       style="fill:none;stroke:#000000;stroke-width:0.68;stroke-linecap:round;stroke-linejoin:round;stroke-miterlimit:10;stroke-dasharray:none;stroke-opacity:1"
       d="m 574.26521,54.937771 h 37.73334"
       id="path178" />
    <path
       style="fill:none;stroke:#000000;stroke-width:0.68;stroke-linecap:round;stroke-linejoin:round;stroke-miterlimit:10;stroke-dasharray:none;stroke-opacity:1"
       d="m 772.66521,411.0711 -0.4,-2.93334 -1.33333,-2.66666 -2.13334,-2.13334 -2.66666,-1.33333 -2.93334,-0.4 -2.93333,0.4 -2.53333,1.33333 -2.13334,2.13334 -1.33333,2.66666 -0.53333,2.93334"
       id="path177" />
    <path
       style="fill:none;stroke:#000000;stroke-width:0.68;stroke-linecap:round;stroke-linejoin:round;stroke-miterlimit:10;stroke-dasharray:none;stroke-opacity:1"
       d="M 772.66521,448.80443 V 411.0711"
       id="path176" />
    <path
       style="fill:none;stroke:#000000;stroke-width:0.68;stroke-linecap:round;stroke-linejoin:round;stroke-miterlimit:10;stroke-dasharray:none;stroke-opacity:1"
       d="m 753.73188,448.80443 0.53333,2.93333 1.33333,2.66667 2.13334,2 2.53333,1.33333 2.93333,0.53333 2.93334,-0.53333 2.66666,-1.33333 2.13334,-2 1.33333,-2.66667 0.4,-2.93333"
       id="path175" />
    <path
       style="fill:none;stroke:#000000;stroke-width:0.68;stroke-linecap:round;stroke-linejoin:round;stroke-miterlimit:10;stroke-dasharray:none;stroke-opacity:1"
       d="m 753.73188,411.0711 v 37.73333"
       id="path174" />
    <path
       style="fill:none;stroke:#000000;stroke-width:0.68;stroke-linecap:round;stroke-linejoin:round;stroke-miterlimit:10;stroke-dasharray:none;stroke-opacity:1"
       d="m 305.86522,510.40443 3.2,-0.53334 2.93333,-1.33333 2.53334,-2 1.73333,-2.8 0.93333,-3.06667 v -3.2 l -0.93333,-3.06666 -1.73333,-2.8 -2.53334,-2.13334 -2.93333,-1.33333 -3.2,-0.4 -3.2,0.4 -2.93333,1.33333 -2.4,2.13334 -1.73334,2.8 -0.93333,3.06666 v 3.2 l 0.93333,3.06667 1.73334,2.8 2.4,2 2.93333,1.33333 3.2,0.53334"
       id="path173" />
    <path
       style="fill:none;stroke:#000000;stroke-width:0.68;stroke-linecap:round;stroke-linejoin:round;stroke-miterlimit:10;stroke-dasharray:none;stroke-opacity:1"
       d="m 763.19854,259.0711 2.26667,0.4 1.73333,1.2 1.33334,1.86667 0.4,2.13333 -0.4,2.26667 -1.33334,1.73333 -1.73333,1.33333 -2.26667,0.4 -2.13333,-0.4 -1.86667,-1.33333 -1.2,-1.73333 -0.4,-2.26667 0.4,-2.13333 1.2,-1.86667 1.86667,-1.2 2.13333,-0.4"
       id="path172" />
    <path
       style="fill:none;stroke:#000000;stroke-width:0.68;stroke-linecap:round;stroke-linejoin:round;stroke-miterlimit:10;stroke-dasharray:none;stroke-opacity:1"
       d="m 621.46521,361.0711 2.26667,0.4 1.73333,1.33333 1.33334,1.73333 0.4,2.26667 -0.4,2.13333 -1.33334,1.86667 -1.73333,1.2 -2.26667,0.4 -2.13333,-0.4 -1.86667,-1.2 -1.2,-1.86667 -0.4,-2.13333 0.4,-2.26667 1.2,-1.73333 1.86667,-1.33333 2.13333,-0.4"
       id="path171" />
    <path
       style="fill:none;stroke:#000000;stroke-width:0.68;stroke-linecap:round;stroke-linejoin:round;stroke-miterlimit:10;stroke-dasharray:none;stroke-opacity:1"
       d="m 621.46521,485.87109 2.26667,0.4 1.73333,1.2 1.33334,1.86667 0.4,2.13333 -0.4,2.13334 -1.33334,1.86666 -1.73333,1.2 -2.26667,0.53334 -2.13333,-0.53334 -1.86667,-1.2 -1.2,-1.86666 -0.4,-2.13334 0.4,-2.13333 1.2,-1.86667 1.86667,-1.2 2.13333,-0.4"
       id="path170" />
    <path
       style="fill:none;stroke:#000000;stroke-width:0.68;stroke-linecap:round;stroke-linejoin:round;stroke-miterlimit:10;stroke-dasharray:none;stroke-opacity:1"
       d="m 621.46521,236.40443 2.26667,0.4 1.73333,1.2 1.33334,1.86667 0.4,2.13333 -0.4,2.26667 -1.33334,1.73333 -1.73333,1.33334 -2.26667,0.4 -2.13333,-0.4 -1.86667,-1.33334 -1.2,-1.73333 -0.4,-2.26667 0.4,-2.13333 1.2,-1.86667 1.86667,-1.2 2.13333,-0.4"
       id="path169" />
    <path
       style="fill:none;stroke:#000000;stroke-width:0.68;stroke-linecap:round;stroke-linejoin:round;stroke-miterlimit:10;stroke-dasharray:none;stroke-opacity:1"
       d="m 621.46521,111.60444 2.26667,0.53333 1.73333,1.2 1.33334,1.86667 0.4,2.13333 -0.4,2.13333 -1.33334,1.86667 -1.73333,1.2 -2.26667,0.4 -2.13333,-0.4 -1.86667,-1.2 -1.2,-1.86667 -0.4,-2.13333 0.4,-2.13333 1.2,-1.86667 1.86667,-1.2 2.13333,-0.53333"
       id="path168" />
    <path
       style="fill:none;stroke:#000000;stroke-width:0.68;stroke-linecap:round;stroke-linejoin:round;stroke-miterlimit:10;stroke-dasharray:none;stroke-opacity:1"
       d="m 971.0652,259.0711 2.26667,0.4 1.73333,1.2 1.33334,1.86667 0.4,2.13333 -0.4,2.26667 -1.33334,1.73333 -1.73333,1.33333 -2.26667,0.4 -2.13333,-0.4 -1.86667,-1.33333 -1.2,-1.73333 -0.4,-2.26667 0.4,-2.13333 1.2,-1.86667 1.86667,-1.2 2.13333,-0.4"
       id="path167" />
    <path
       style="fill:none;stroke:#000000;stroke-width:0.68;stroke-linecap:round;stroke-linejoin:round;stroke-miterlimit:10;stroke-dasharray:none;stroke-opacity:1"
       d="m 334.26522,586.00442 2.13333,0.4 1.86667,1.2 1.2,1.86667 0.53333,2.13333 -0.53333,2.26667 -1.2,1.73333 -1.86667,1.33334 -2.13333,0.4 -2.13333,-0.4 -1.86667,-1.33334 -1.2,-1.73333 -0.4,-2.26667 0.4,-2.13333 1.2,-1.86667 1.86667,-1.2 2.13333,-0.4"
       id="path166" />
    <path
       style="fill:none;stroke:#000000;stroke-width:0.68;stroke-linecap:round;stroke-linejoin:round;stroke-miterlimit:10;stroke-dasharray:none;stroke-opacity:1"
       d="m 423.06522,304.40443 2.13333,0.4 1.86667,1.2 1.2,1.86667 0.53333,2.26666 -0.53333,2.13334 -1.2,1.86666 -1.86667,1.2 -2.13333,0.4 -2.13334,-0.4 -1.86666,-1.2 -1.2,-1.86666 -0.4,-2.13334 0.4,-2.26666 1.2,-1.86667 1.86666,-1.2 2.13334,-0.4"
       id="path165" />
    <path
       style="fill:none;stroke:#000000;stroke-width:0.68;stroke-linecap:round;stroke-linejoin:round;stroke-miterlimit:10;stroke-dasharray:none;stroke-opacity:1"
       d="m 621.46521,610.53776 2.26667,0.4 1.73333,1.33333 1.33334,1.73333 0.4,2.26667 -0.4,2.13333 -1.33334,1.86667 -1.73333,1.2 -2.26667,0.4 -2.13333,-0.4 -1.86667,-1.2 -1.2,-1.86667 -0.4,-2.13333 0.4,-2.26667 1.2,-1.73333 1.86667,-1.33333 2.13333,-0.4"
       id="path164" />
    <path
       style="fill:none;stroke:#000000;stroke-width:0.68;stroke-linecap:round;stroke-linejoin:round;stroke-miterlimit:10;stroke-dasharray:none;stroke-opacity:1"
       d="m 215.19856,304.40443 2.13333,0.4 1.86667,1.2 1.2,1.86667 0.53333,2.26666 -0.53333,2.13334 -1.2,1.86666 -1.86667,1.2 -2.13333,0.4 -2.13334,-0.4 -1.86666,-1.2 -1.2,-1.86666 -0.4,-2.13334 0.4,-2.26666 1.2,-1.86667 1.86666,-1.2 2.13334,-0.4"
       id="path1" />
  </g>
</svg>
