<?xml version="1.0" encoding="UTF-8" standalone="no"?>
<!-- Created with Inkscape (http://www.inkscape.org/) -->

<svg
   version="1.1"
   id="svg1"
   width="1354.114"
   height="999.23877"
   viewBox="0 0 1354.114 999.23875"
   sodipodi:docname="toit_1.svg"
   inkscape:version="1.3 (0e150ed6c4, 2023-07-21)"
   xmlns:inkscape="http://www.inkscape.org/namespaces/inkscape"
   xmlns:sodipodi="http://sodipodi.sourceforge.net/DTD/sodipodi-0.dtd"
   xmlns="http://www.w3.org/2000/svg"
   xmlns:svg="http://www.w3.org/2000/svg">
  <defs
     id="defs1" />
  <sodipodi:namedview
     id="namedview1"
     pagecolor="#ffffff"
     bordercolor="#999999"
     borderopacity="1"
     inkscape:showpageshadow="2"
     inkscape:pageopacity="0"
     inkscape:pagecheckerboard="0"
     inkscape:deskcolor="#d1d1d1"
     inkscape:zoom="0.52724972"
     inkscape:cx="806.06966"
     inkscape:cy="678.04683"
     inkscape:window-width="1920"
     inkscape:window-height="1051"
     inkscape:window-x="-9"
     inkscape:window-y="-9"
     inkscape:window-maximized="1"
     inkscape:current-layer="layer1">
    <inkscape:page
       x="0"
       y="0"
       inkscape:label="1"
       id="page1"
       width="1354.114"
       height="999.23877"
       margin="0"
       bleed="0" />
  </sodipodi:namedview>
  <g
     inkscape:groupmode="layer"
     id="layer1"
     inkscape:label="découpe 2"
     style="display:inline">
    <path
       style="fill:none;stroke:#000000;stroke-width:0.68;stroke-linecap:round;stroke-linejoin:round;stroke-miterlimit:10;stroke-dasharray:none;stroke-opacity:1"
       d="m 1141.6686,21.454627 h -944.8"
       id="path18" />
    <path
       style="fill:none;stroke:#000000;stroke-width:0.68;stroke-linecap:round;stroke-linejoin:round;stroke-miterlimit:10;stroke-dasharray:none;stroke-opacity:1"
       d="M 1311.8019,78.121292 1141.6686,21.454627"
       id="path17" />
    <path
       style="fill:none;stroke:#000000;stroke-width:0.68;stroke-linecap:round;stroke-linejoin:round;stroke-miterlimit:10;stroke-dasharray:none;stroke-opacity:1"
       d="M 1311.8019,890.78794 V 78.121292"
       id="path16" />
    <path
       style="fill:none;stroke:#000000;stroke-width:0.68;stroke-linecap:round;stroke-linejoin:round;stroke-miterlimit:10;stroke-dasharray:none;stroke-opacity:1"
       d="m 1236.2019,966.38794 75.6,-75.6"
       id="path15" />
    <path
       style="fill:none;stroke:#000000;stroke-width:0.68;stroke-linecap:round;stroke-linejoin:round;stroke-miterlimit:10;stroke-dasharray:none;stroke-opacity:1"
       d="M 196.8686,21.454627 26.735267,78.121292"
       id="path19" />
    <path
       style="fill:none;stroke:#000000;stroke-width:0.68;stroke-linecap:round;stroke-linejoin:round;stroke-miterlimit:10;stroke-dasharray:none;stroke-opacity:1"
       d="M 102.33526,966.38794 H 1236.2019"
       id="path14" />
    <path
       style="fill:none;stroke:#000000;stroke-width:0.68;stroke-linecap:round;stroke-linejoin:round;stroke-miterlimit:10;stroke-dasharray:none;stroke-opacity:1"
       d="m 26.735267,890.78794 75.599993,75.6"
       id="path13" />
    <path
       style="fill:none;stroke:#000000;stroke-width:0.68;stroke-linecap:round;stroke-linejoin:round;stroke-miterlimit:10;stroke-dasharray:none;stroke-opacity:1"
       d="M 26.735267,78.121292 V 890.78794"
       id="path12" />
  </g>
  <g
     id="g1"
     inkscape:groupmode="layer"
     inkscape:label="1">
    <path
       style="fill:none;stroke:#000000;stroke-width:0.68;stroke-linecap:round;stroke-linejoin:round;stroke-miterlimit:10;stroke-dasharray:none;stroke-opacity:1"
       d="m 669.26858,293.72129 2.93334,-0.53334 2.53333,-1.73333 1.73333,-2.53333 0.53334,-2.93334 -0.53334,-2.93333 -1.73333,-2.53333 -2.53333,-1.6 -2.93334,-0.66667 -2.93333,0.66667 -2.53333,1.6 -1.6,2.53333 -0.66667,2.93333 0.66667,2.93334 1.6,2.53333 2.53333,1.73333 2.93333,0.53334"
       id="path11" />
    <path
       style="fill:none;stroke:#000000;stroke-width:0.68;stroke-linecap:round;stroke-linejoin:round;stroke-miterlimit:10;stroke-dasharray:none;stroke-opacity:1"
       d="m 820.46858,444.92128 2.93333,-0.53333 2.53334,-1.73333 1.73333,-2.53334 0.53333,-2.93333 -0.53333,-2.93333 -1.73333,-2.53334 -2.53334,-1.73333 -2.93333,-0.53333 -2.93333,0.53333 -2.53334,1.73333 -1.73333,2.53334 -0.53333,2.93333 0.53333,2.93333 1.73333,2.53334 2.53334,1.73333 2.93333,0.53333"
       id="path10" />
    <path
       style="fill:none;stroke:#000000;stroke-width:0.68;stroke-linecap:round;stroke-linejoin:round;stroke-miterlimit:10;stroke-dasharray:none;stroke-opacity:1"
       d="m 669.26858,153.72129 4.53334,-0.53333 4.26666,-1.6 3.73334,-2.66667 3.06666,-3.33333 2.13334,-4 1.06666,-4.53334 v -4.53333 l -1.06666,-4.4 -2.13334,-4 -3.06666,-3.46667 -3.73334,-2.53333 -4.26666,-1.6 -4.53334,-0.53333 -4.53333,0.53333 -4.26667,1.6 -3.73333,2.53333 -2.93333,3.46667 -2.13334,4 -1.2,4.4 v 4.53333 l 1.2,4.53334 2.13334,4 2.93333,3.33333 3.73333,2.66667 4.26667,1.6 4.53333,0.53333"
       id="path9" />
    <path
       style="fill:none;stroke:#000000;stroke-width:0.68;stroke-linecap:round;stroke-linejoin:round;stroke-miterlimit:10;stroke-dasharray:none;stroke-opacity:1"
       d="m 669.26858,820.78794 6.93334,-0.53333 6.8,-1.73334 6.53333,-2.66666 5.86667,-3.73334 5.2,-4.66666 4.4,-5.46667 3.6,-6 2.4,-6.53333 1.46666,-6.8 0.26667,-7.06667 -0.8,-6.93333 -2,-6.66667 -2.93333,-6.4 -4,-5.73333 -4.93334,-5.06667 -5.6,-4.13333 -6.13333,-3.33333 -6.66667,-2.13334 -6.93333,-1.2 h -6.93333 l -6.93334,1.2 -6.66666,2.13334 -6.13334,3.33333 -5.6,4.13333 -4.8,5.06667 -4,5.73333 -3.06666,6.4 -1.86667,6.66667 -0.93333,6.93333 0.4,7.06667 1.33333,6.8 2.53333,6.53333 3.46667,6 4.4,5.46667 5.2,4.66666 6,3.73334 6.4,2.66666 6.8,1.73334 6.93333,0.53333"
       id="path8" />
    <path
       style="fill:none;stroke:#000000;stroke-width:0.68;stroke-linecap:round;stroke-linejoin:round;stroke-miterlimit:10;stroke-dasharray:none;stroke-opacity:1"
       d="m 669.26858,596.12128 2.93334,-0.53333 2.53333,-1.73334 1.73333,-2.53333 0.53334,-2.93333 -0.53334,-2.93334 -1.73333,-2.53333 -2.53333,-1.73333 -2.93334,-0.53334 -2.93333,0.53334 -2.53333,1.73333 -1.6,2.53333 -0.66667,2.93334 0.66667,2.93333 1.6,2.53333 2.53333,1.73334 2.93333,0.53333"
       id="path7" />
    <path
       style="fill:none;stroke:#000000;stroke-width:0.68;stroke-linecap:round;stroke-linejoin:round;stroke-miterlimit:10;stroke-dasharray:none;stroke-opacity:1"
       d="m 518.06859,444.92128 3.06666,-0.53333 2.4,-1.73333 1.73334,-2.53334 0.53333,-2.93333 -0.53333,-2.93333 -1.73334,-2.53334 -2.4,-1.73333 -3.06666,-0.53333 -2.93334,0.53333 -2.53333,1.73333 -1.6,2.53334 -0.66667,2.93333 0.66667,2.93333 1.6,2.53334 2.53333,1.73333 2.93334,0.53333"
       id="path6" />
    <path
       style="fill:none;stroke:#000000;stroke-width:0.68;stroke-linecap:round;stroke-linejoin:round;stroke-miterlimit:10;stroke-dasharray:none;stroke-opacity:1"
       d="m 669.26858,475.05462 6.53334,-0.66667 6.4,-1.73333 6,-2.66667 5.33333,-3.86667 4.66667,-4.66666 3.86666,-5.33334 2.8,-6 1.6,-6.4 0.66667,-6.53333 -0.66667,-6.53333 -1.6,-6.4 -2.8,-6 -3.86666,-5.33334 -4.66667,-4.66666 -5.33333,-3.73334 -6,-2.8 -6.4,-1.73333 -6.53334,-0.53333 -6.53333,0.53333 -6.4,1.73333 -6,2.8 -5.33333,3.73334 -4.66667,4.66666 -3.73333,5.33334 -2.8,6 -1.73334,6.4 -0.53333,6.53333 0.53333,6.53333 1.73334,6.4 2.8,6 3.73333,5.33334 4.66667,4.66666 5.33333,3.86667 6,2.66667 6.4,1.73333 6.53333,0.66667"
       id="path5" />
    <path
       style="fill:none;stroke:#000000;stroke-width:0.68;stroke-linecap:round;stroke-linejoin:round;stroke-miterlimit:10;stroke-dasharray:none;stroke-opacity:1"
       d="m 1198.4686,125.18796 -3.3334,0.53333 -2.9333,1.73333 -2.1333,2.53334 -1.0667,3.2 v 3.33333 l 1.0667,3.2 2.1333,2.53333 2.9333,1.6 3.3334,0.66667 3.2,-0.66667 2.9333,-1.6 2.1333,-2.53333 1.2,-3.2 v -3.33333 l -1.2,-3.2 -2.1333,-2.53334 -2.9333,-1.73333 -3.2,-0.53333"
       id="path4" />
    <path
       style="fill:none;stroke:#000000;stroke-width:0.68;stroke-linecap:round;stroke-linejoin:round;stroke-miterlimit:10;stroke-dasharray:none;stroke-opacity:1"
       d="m 1198.4686,749.18794 3.2,-0.53333 2.9333,-1.73333 2.1333,-2.53334 1.2,-3.2 v -3.33333 l -1.2,-3.06667 -2.1333,-2.66666 -2.9333,-1.6 -3.2,-0.53334 -3.3334,0.53334 -2.9333,1.6 -2.1333,2.66666 -1.0667,3.06667 v 3.33333 l 1.0667,3.2 2.1333,2.53334 2.9333,1.73333 3.3334,0.53333"
       id="path3" />
    <path
       style="fill:none;stroke:#000000;stroke-width:0.68;stroke-linecap:round;stroke-linejoin:round;stroke-miterlimit:10;stroke-dasharray:none;stroke-opacity:1"
       d="m 140.20193,729.98794 -3.33333,0.53334 -2.93334,1.6 -2.13333,2.66666 -1.06667,3.06667 v 3.33333 l 1.06667,3.2 2.13333,2.53334 2.93334,1.73333 3.33333,0.53333 3.2,-0.53333 2.93333,-1.73333 2.13334,-2.53334 1.2,-3.2 v -3.33333 l -1.2,-3.06667 -2.13334,-2.66666 -2.93333,-1.6 -3.2,-0.53334"
       id="path2" />
    <path
       style="fill:none;stroke:#000000;stroke-width:0.68;stroke-linecap:round;stroke-linejoin:round;stroke-miterlimit:10;stroke-dasharray:none;stroke-opacity:1"
       d="m 140.20193,144.52129 3.2,-0.66667 2.93333,-1.6 2.13334,-2.53333 1.2,-3.2 v -3.33333 l -1.2,-3.2 -2.13334,-2.53334 -2.93333,-1.73333 -3.2,-0.53333 -3.33333,0.53333 -2.93334,1.73333 -2.13333,2.53334 -1.06667,3.2 v 3.33333 l 1.06667,3.2 2.13333,2.53333 2.93334,1.6 3.33333,0.66667"
       id="path1" />
  </g>
</svg>
