<?xml version="1.0" encoding="UTF-8" standalone="no"?>
<!-- Created with Inkscape (http://www.inkscape.org/) -->

<svg
   width="40.5cm"
   height="40cm"
   viewBox="0 0 405 400"
   version="1.1"
   id="svg127"
   inkscape:version="1.3 (0e150ed6c4, 2023-07-21)"
   sodipodi:docname="tocutchassishaut.svg"
   xmlns:inkscape="http://www.inkscape.org/namespaces/inkscape"
   xmlns:sodipodi="http://sodipodi.sourceforge.net/DTD/sodipodi-0.dtd"
   xmlns="http://www.w3.org/2000/svg"
   xmlns:svg="http://www.w3.org/2000/svg">
  <sodipodi:namedview
     id="namedview129"
     pagecolor="#ffffff"
     bordercolor="#000000"
     borderopacity="0.25"
     inkscape:showpageshadow="2"
     inkscape:pageopacity="0.0"
     inkscape:pagecheckerboard="0"
     inkscape:deskcolor="#d1d1d1"
     inkscape:document-units="mm"
     showgrid="false"
     inkscape:zoom="0.36257716"
     inkscape:cx="580.56608"
     inkscape:cy="1013.5774"
     inkscape:window-width="1920"
     inkscape:window-height="1051"
     inkscape:window-x="-9"
     inkscape:window-y="-9"
     inkscape:window-maximized="1"
     inkscape:current-layer="svg127" />
  <defs
     id="defs124" />
  <g
     inkscape:groupmode="layer"
     id="layer6"
     inkscape:label="decoupe 2">
    <path
       style="fill:none;stroke:#000000;stroke-width:0.250119;stroke-linecap:round;stroke-linejoin:round;stroke-miterlimit:10;stroke-dasharray:none;stroke-opacity:1"
       d="M 33.590993,193.65246 V 388.63274"
       id="path34" />
    <path
       style="fill:none;stroke:#000000;stroke-width:0.250119;stroke-linecap:round;stroke-linejoin:round;stroke-miterlimit:10;stroke-dasharray:none;stroke-opacity:1"
       d="M 33.590993,193.65246 53.593492,158.62163"
       id="path33" />
    <path
       style="fill:none;stroke:#000000;stroke-width:0.250119;stroke-linecap:round;stroke-linejoin:round;stroke-miterlimit:10;stroke-dasharray:none;stroke-opacity:1"
       d="M 353.59571,158.62163 H 53.593492"
       id="path32" />
    <path
       style="fill:none;stroke:#000000;stroke-width:0.250119;stroke-linecap:round;stroke-linejoin:round;stroke-miterlimit:10;stroke-dasharray:none;stroke-opacity:1"
       d="m 373.59821,193.65246 -20.0025,-35.03083"
       id="path31" />
    <path
       style="fill:none;stroke:#000000;stroke-width:0.250119;stroke-linecap:round;stroke-linejoin:round;stroke-miterlimit:10;stroke-dasharray:none;stroke-opacity:1"
       d="M 373.59821,388.63274 V 193.65246"
       id="path30" />
    <path
       style="fill:none;stroke:#000000;stroke-width:0.250119;stroke-linecap:round;stroke-linejoin:round;stroke-miterlimit:10;stroke-dasharray:none;stroke-opacity:1"
       d="M 33.590993,388.63274 H 373.59821"
       id="path28" />
  </g>
  <g
     inkscape:label="1"
     inkscape:groupmode="layer"
     id="layer1">
    <g
       id="g448"
       transform="matrix(0.352778 0 0 -0.352778 203.595 278.637)">
      <path
         style="fill:none;stroke:#000000;stroke-width:0.709;stroke-linecap:round;stroke-linejoin:round;stroke-miterlimit:10;stroke-dasharray:none;stroke-opacity:1"
         d="m 396.9,-205.7 2.4,0.5 2.2,1.2 1.6,2 0.9,2.3 v 2.5 l -0.9,2.4 -1.6,1.9 -2.2,1.3 -2.4,0.4 -2.5,-0.4 -2.2,-1.3 -1.6,-1.9 -0.8,-2.4 v -2.5 l 0.8,-2.3 1.6,-2 2.2,-1.2 2.5,-0.5"
         id="path29" />
      <path
         style="fill:none;stroke:#000000;stroke-width:0.709;stroke-linecap:round;stroke-linejoin:round;stroke-miterlimit:10;stroke-dasharray:none;stroke-opacity:1"
         d="m -396.8,247.9 2.4,0.4 2.2,1.3 1.6,1.9 0.9,2.4 v 2.5 l -0.9,2.3 -1.6,2 -2.2,1.2 -2.4,0.4 -2.5,-0.4 -2.2,-1.2 -1.6,-2 -0.8,-2.3 v -2.5 l 0.8,-2.4 1.6,-1.9 2.2,-1.3 2.5,-0.4"
         id="path27" />
      <path
         style="fill:none;stroke:#000000;stroke-width:0.709;stroke-linecap:round;stroke-linejoin:round;stroke-miterlimit:10;stroke-dasharray:none;stroke-opacity:1"
         d="m -396.8,-205.7 -2.5,0.5 -2.2,1.2 -1.6,2 -0.8,2.3 v 2.5 l 0.8,2.4 1.6,1.9 2.2,1.3 2.5,0.4 2.4,-0.4 2.2,-1.3 1.6,-1.9 0.9,-2.4 v -2.5 l -0.9,-2.3 -1.6,-2 -2.2,-1.2 -2.4,-0.5"
         id="path26" />
      <path
         style="fill:none;stroke:#000000;stroke-width:0.709;stroke-linecap:round;stroke-linejoin:round;stroke-miterlimit:10;stroke-dasharray:none;stroke-opacity:1"
         d="m 396.9,247.9 -2.5,0.4 -2.2,1.3 -1.6,1.9 -0.8,2.4 v 2.5 l 0.8,2.3 1.6,2 2.2,1.2 2.5,0.4 2.4,-0.4 2.2,-1.2 1.6,-2 0.9,-2.3 v -2.5 l -0.9,-2.4 -1.6,-1.9 -2.2,-1.3 -2.4,-0.4"
         id="path25" />
      <path
         style="fill:none;stroke:#000000;stroke-width:0.709;stroke-linecap:round;stroke-linejoin:round;stroke-miterlimit:10;stroke-dasharray:none;stroke-opacity:1"
         d="M -221.1,-113.4 H -385.5"
         id="path24" />
      <path
         style="fill:none;stroke:#000000;stroke-width:0.709;stroke-linecap:round;stroke-linejoin:round;stroke-miterlimit:10;stroke-dasharray:none;stroke-opacity:1"
         d="m -209.7,-103.6 1.6,0.3 1.5,1 0.9,1.4 0.4,1.7 -0.4,1.7 -0.9,1.4 -1.5,0.9 -1.6,0.4 -1.7,-0.4 -1.4,-0.9 -1,-1.4 -0.3,-1.7 0.3,-1.7 1,-1.4 1.4,-1 1.7,-0.3"
         id="path23" />
      <path
         style="fill:none;stroke:#000000;stroke-width:0.709;stroke-linecap:round;stroke-linejoin:round;stroke-miterlimit:10;stroke-dasharray:none;stroke-opacity:1"
         d="m -209.7,151.5 1.6,0.3 1.5,1 0.9,1.4 0.4,1.7 -0.4,1.7 -0.9,1.4 -1.5,1 -1.6,0.3 -1.7,-0.3 -1.4,-1 -1,-1.4 -0.3,-1.7 0.3,-1.7 1,-1.4 1.4,-1 1.7,-0.3"
         id="path22" />
      <path
         style="fill:none;stroke:#000000;stroke-width:0.709;stroke-linecap:round;stroke-linejoin:round;stroke-miterlimit:10;stroke-dasharray:none;stroke-opacity:1"
         d="m -396.8,151.5 1.7,0.3 1.4,1 0.9,1.4 0.4,1.7 -0.4,1.7 -0.9,1.4 -1.4,1 -1.7,0.3 -1.7,-0.3 -1.4,-1 -1,-1.4 -0.3,-1.7 0.3,-1.7 1,-1.4 1.4,-1 1.7,-0.3"
         id="path21" />
      <path
         style="fill:none;stroke:#000000;stroke-width:0.709;stroke-linecap:round;stroke-linejoin:round;stroke-miterlimit:10;stroke-dasharray:none;stroke-opacity:1"
         d="m -396.8,-103.6 1.7,0.3 1.4,1 0.9,1.4 0.4,1.7 -0.4,1.7 -0.9,1.4 -1.4,0.9 -1.7,0.4 -1.7,-0.4 -1.4,-0.9 -1,-1.4 -0.3,-1.7 0.3,-1.7 1,-1.4 1.4,-1 1.7,-0.3"
         id="path20" />
      <path
         style="fill:none;stroke:#000000;stroke-width:0.709;stroke-linecap:round;stroke-linejoin:round;stroke-miterlimit:10;stroke-dasharray:none;stroke-opacity:1"
         d="m -218.2,167.2 -0.1,0.6 -0.2,0.5 -0.2,0.5 -0.4,0.4 -0.4,0.4 -0.5,0.3 -0.5,0.1 -0.6,0.1"
         id="path19" />
      <path
         style="fill:none;stroke:#000000;stroke-width:0.709;stroke-linecap:round;stroke-linejoin:round;stroke-miterlimit:10;stroke-dasharray:none;stroke-opacity:1"
         d="M -218.2,-110.6 V 167.2"
         id="path18" />
      <path
         style="fill:none;stroke:#000000;stroke-width:0.709;stroke-linecap:round;stroke-linejoin:round;stroke-miterlimit:10;stroke-dasharray:none;stroke-opacity:1"
         d="m -221.1,-113.4 0.6,0.1 0.5,0.1 0.5,0.3 0.4,0.3 0.4,0.5 0.2,0.5 0.2,0.5 0.1,0.5"
         id="path17" />
      <path
         style="fill:none;stroke:#000000;stroke-width:0.709;stroke-linecap:round;stroke-linejoin:round;stroke-miterlimit:10;stroke-dasharray:none;stroke-opacity:1"
         d="m -385.5,-113.4 -0.5,0.1 -0.6,0.1 -0.5,0.3 -0.4,0.3 -0.3,0.5 -0.3,0.5 -0.2,0.5 v 0.5"
         id="path16" />
      <path
         style="fill:none;stroke:#000000;stroke-width:0.709;stroke-linecap:round;stroke-linejoin:round;stroke-miterlimit:10;stroke-dasharray:none;stroke-opacity:1"
         d="M -388.3,-110.6 V 167.2"
         id="path15" />
      <path
         style="fill:none;stroke:#000000;stroke-width:0.709;stroke-linecap:round;stroke-linejoin:round;stroke-miterlimit:10;stroke-dasharray:none;stroke-opacity:1"
         d="m -385.5,170.1 -0.5,-0.1 -0.6,-0.1 -0.5,-0.3 -0.4,-0.4 -0.3,-0.4 -0.3,-0.5 -0.2,-0.5 v -0.6"
         id="path14" />
      <path
         style="fill:none;stroke:#000000;stroke-width:0.709;stroke-linecap:round;stroke-linejoin:round;stroke-miterlimit:10;stroke-dasharray:none;stroke-opacity:1"
         d="M -221.1,170.1 H -385.5"
         id="path13" />
      <path
         style="fill:none;stroke:#000000;stroke-width:0.709;stroke-linecap:round;stroke-linejoin:round;stroke-miterlimit:10;stroke-dasharray:none;stroke-opacity:1"
         d="m -385.5,306 2.2,0.4 1.9,1.3 1.3,1.9 0.4,2.2 -0.4,2.2 -1.3,1.9 -1.9,1.3 -2.2,0.4 -2.2,-0.4 -1.9,-1.3 -1.3,-1.9 -0.4,-2.2 0.4,-2.2 1.3,-1.9 1.9,-1.3 2.2,-0.4"
         id="path12" />
      <path
         style="fill:none;stroke:#000000;stroke-width:0.709;stroke-linecap:round;stroke-linejoin:round;stroke-miterlimit:10;stroke-dasharray:none;stroke-opacity:1"
         d="m -453.5,215.3 2.2,0.4 1.9,1.3 1.2,1.9 0.5,2.2 -0.5,2.2 -1.2,1.9 -1.9,1.3 -2.2,0.4 -2.2,-0.4 -1.9,-1.3 -1.3,-1.9 -0.4,-2.2 0.4,-2.2 1.3,-1.9 1.9,-1.3 2.2,-0.4"
         id="path11" />
      <path
         style="fill:none;stroke:#000000;stroke-width:0.709;stroke-linecap:round;stroke-linejoin:round;stroke-miterlimit:10;stroke-dasharray:none;stroke-opacity:1"
         d="m -453.5,-218.4 2.2,0.4 1.9,1.3 1.2,1.9 0.5,2.2 -0.5,2.2 -1.2,1.9 -1.9,1.3 -2.2,0.4 -2.2,-0.4 -1.9,-1.3 -1.3,-1.9 -0.4,-2.2 0.4,-2.2 1.3,-1.9 1.9,-1.3 2.2,-0.4"
         id="path10" />
      <path
         style="fill:none;stroke:#000000;stroke-width:0.709;stroke-linecap:round;stroke-linejoin:round;stroke-miterlimit:10;stroke-dasharray:none;stroke-opacity:1"
         d="m 385.5,317.6 -2.2,-0.4 -1.9,-1.3 -1.2,-1.9 -0.5,-2.2 0.5,-2.2 1.2,-1.9 1.9,-1.3 2.2,-0.4 2.3,0.4 1.8,1.3 1.3,1.9 0.4,2.2 -0.4,2.2 -1.3,1.9 -1.8,1.3 -2.3,0.4"
         id="path9" />
      <path
         style="fill:none;stroke:#000000;stroke-width:0.709;stroke-linecap:round;stroke-linejoin:round;stroke-miterlimit:10;stroke-dasharray:none;stroke-opacity:1"
         d="m 453.6,226.9 -2.3,-0.4 -1.8,-1.3 -1.3,-1.9 -0.4,-2.2 0.4,-2.2 1.3,-1.9 1.8,-1.3 2.3,-0.4 2.2,0.4 1.9,1.3 1.2,1.9 0.5,2.2 -0.5,2.2 -1.2,1.9 -1.9,1.3 -2.2,0.4"
         id="path8" />
      <path
         style="fill:none;stroke:#000000;stroke-width:0.709;stroke-linecap:round;stroke-linejoin:round;stroke-miterlimit:10;stroke-dasharray:none;stroke-opacity:1"
         d="m 453.6,-206.8 -2.3,-0.4 -1.8,-1.3 -1.3,-1.9 -0.4,-2.2 0.4,-2.2 1.3,-1.9 1.8,-1.3 2.3,-0.4 2.2,0.4 1.9,1.3 1.2,1.9 0.5,2.2 -0.5,2.2 -1.2,1.9 -1.9,1.3 -2.2,0.4"
         id="path7" />
      <path
         style="fill:none;stroke:#000000;stroke-width:0.709;stroke-linecap:round;stroke-linejoin:round;stroke-miterlimit:10;stroke-dasharray:none;stroke-opacity:1"
         d="m 113.4,22.5 2.2,0.5 1.9,1.2 1.3,1.9 0.4,2.2 -0.4,2.3 -1.3,1.9 -1.9,1.2 -2.2,0.5 -2.2,-0.5 -1.9,-1.2 -1.3,-1.9 -0.4,-2.3 0.4,-2.2 1.3,-1.9 1.9,-1.2 2.2,-0.5"
         id="path6" />
      <path
         style="fill:none;stroke:#000000;stroke-width:0.709;stroke-linecap:round;stroke-linejoin:round;stroke-miterlimit:10;stroke-dasharray:none;stroke-opacity:1"
         d="m 0,238.1 3.7,0.4 3.5,1.2 3.1,1.9 2.7,2.5 2,3.1 1.4,3.4 0.6,3.6 -0.2,3.7 -1,3.5 -1.7,3.3 -2.4,2.8 -2.9,2.2 -3.3,1.5 -3.6,0.8 h -3.7 l -3.6,-0.8 -3.3,-1.5 -3,-2.2 -2.4,-2.8 -1.7,-3.3 -1,-3.5 -0.2,-3.7 0.6,-3.6 1.4,-3.4 2.1,-3.1 2.6,-2.5 3.2,-1.9 3.5,-1.2 3.6,-0.4"
         id="path5" />
      <path
         style="fill:none;stroke:#000000;stroke-width:0.709;stroke-linecap:round;stroke-linejoin:round;stroke-miterlimit:10;stroke-dasharray:none;stroke-opacity:1"
         d="m 0,135.9 2.2,0.5 1.9,1.2 1.3,1.9 0.4,2.2 -0.4,2.3 -1.3,1.8 -1.9,1.3 -2.2,0.4 -2.2,-0.4 -1.9,-1.3 -1.2,-1.8 -0.5,-2.3 0.5,-2.2 1.2,-1.9 1.9,-1.2 2.2,-0.5"
         id="path4" />
      <path
         style="fill:none;stroke:#000000;stroke-width:0.709;stroke-linecap:round;stroke-linejoin:round;stroke-miterlimit:10;stroke-dasharray:none;stroke-opacity:1"
         d="m 0,-259.4 5.1,0.4 5,1.2 4.7,2 4.4,2.7 3.9,3.3 3.3,3.9 2.7,4.3 1.9,4.8 1.2,4.9 0.4,5.1 -0.4,5.1 -1.2,5 -1.9,4.7 -2.7,4.4 -3.3,3.9 -3.9,3.3 -4.4,2.7 -4.7,1.9 -5,1.2 -5.1,0.4 -5.1,-0.4 -5,-1.2 -4.7,-1.9 -4.3,-2.7 -3.9,-3.3 -3.4,-3.9 -2.6,-4.4 -2,-4.7 -1.2,-5 -0.4,-5.1 0.4,-5.1 1.2,-4.9 2,-4.8 2.6,-4.3 3.4,-3.9 3.9,-3.3 4.3,-2.7 4.7,-2 5,-1.2 5.1,-0.4"
         id="path3" />
      <path
         style="fill:none;stroke:#000000;stroke-width:0.709;stroke-linecap:round;stroke-linejoin:round;stroke-miterlimit:10;stroke-dasharray:none;stroke-opacity:1"
         d="m 0,-90.8 2.2,0.4 1.9,1.3 1.3,1.8 0.4,2.3 -0.4,2.2 -1.3,1.9 -1.9,1.2 -2.2,0.5 -2.2,-0.5 -1.9,-1.2 -1.2,-1.9 -0.5,-2.2 0.5,-2.3 1.2,-1.8 1.9,-1.3 2.2,-0.4"
         id="path2" />
      <path
         style="fill:none;stroke:#000000;stroke-width:0.709;stroke-linecap:round;stroke-linejoin:round;stroke-miterlimit:10;stroke-dasharray:none;stroke-opacity:1"
         d="m -113.4,22.5 2.3,0.5 1.8,1.2 1.3,1.9 0.4,2.2 -0.4,2.3 -1.3,1.9 -1.8,1.2 -2.3,0.5 -2.2,-0.5 -1.9,-1.2 -1.2,-1.9 -0.5,-2.3 0.5,-2.2 1.2,-1.9 1.9,-1.2 2.2,-0.5"
         id="path1" />
      <path
         style="fill:none;stroke:#000000;stroke-width:0.709;stroke-linecap:round;stroke-linejoin:round;stroke-miterlimit:10;stroke-dasharray:none;stroke-opacity:1"
         d="m 0,0 4.8,0.4 4.7,1.2 4.3,2 4,2.7 3.5,3.3 2.9,3.9 2.1,4.3 1.4,4.6 0.6,4.7 -0.2,4.8 -1,4.7 -1.8,4.5 -2.5,4.1 -3.2,3.6 -3.7,3 -4.2,2.4 -4.5,1.6 -4.8,0.8 h -4.8 l -4.7,-0.8 -4.6,-1.6 -4.2,-2.4 -3.7,-3 -3.2,-3.6 -2.5,-4.1 -1.8,-4.5 -1,-4.7 -0.2,-4.8 0.6,-4.7 1.4,-4.6 2.2,-4.3 2.8,-3.9 3.5,-3.3 4,-2.7 4.4,-2 L -4.8,0.4 0,0"
         id="path450" />
    </g>
  </g>
  <defs
     id="defs482">
    <marker
       id="DrawCurveMarker"
       orient="auto"
       refX="-8"
       refY="-2.41063"
       style="overflow:visible">
      <path
         d="m -6.55552,-2.41063 0,0 L -13.11104,0 c 1.0473,-1.42323 1.04126,-3.37047 0,-4.82126"
         style="fill:#000044; fill-rule:evenodd;stroke-width:0.62500000;stroke-linejoin:round;"
         id="path482" />
    </marker>
  </defs>
  <defs
     id="defs483">
    <marker
       id="DrawCurveMarker_r"
       orient="auto"
       refX="8"
       refY="-2.41063"
       style="overflow:visible">
      <path
         d="m 6.55552,-2.41063 0,0 L 13.11104,0 c -1.0473,-1.42323 -1.04126,-3.37047 0,-4.82126"
         style="fill:#000044; fill-rule:evenodd;stroke-width:0.62500000;stroke-linejoin:round;"
         id="path483" />
    </marker>
  </defs>
</svg>
